<?xml version="1.0" encoding="UTF-8" standalone="no"?>
<svg
   xmlns:dc="http://purl.org/dc/elements/1.1/"
   xmlns:cc="http://creativecommons.org/ns#"
   xmlns:rdf="http://www.w3.org/1999/02/22-rdf-syntax-ns#"
   xmlns:svg="http://www.w3.org/2000/svg"
   xmlns="http://www.w3.org/2000/svg"
   xmlns:sodipodi="http://sodipodi.sourceforge.net/DTD/sodipodi-0.dtd"
   xmlns:inkscape="http://www.inkscape.org/namespaces/inkscape"
   version="1.1"
   id="svg885"
   width="512"
   height="512"
   viewBox="0 0 512 512"
   sodipodi:docname="STAR.svg"
   inkscape:version="1.0.2 (e86c870879, 2021-01-15)">
  <metadata
     id="metadata891">
    <rdf:RDF>
      <cc:Work
         rdf:about="">
        <dc:format>image/svg+xml</dc:format>
        <dc:type
           rdf:resource="http://purl.org/dc/dcmitype/StillImage" />
        <dc:title />
      </cc:Work>
    </rdf:RDF>
  </metadata>
  <defs
     id="defs889" />
  <sodipodi:namedview
     pagecolor="#ffffff"
     bordercolor="#666666"
     borderopacity="1"
     objecttolerance="10"
     gridtolerance="10"
     guidetolerance="10"
     inkscape:pageopacity="0"
     inkscape:pageshadow="2"
     inkscape:window-width="1366"
     inkscape:window-height="718"
     id="namedview887"
     showgrid="false"
     inkscape:zoom="0.51269531"
     inkscape:cx="717.58722"
     inkscape:cy="439.42493"
     inkscape:window-x="0"
     inkscape:window-y="0"
     inkscape:window-maximized="1"
     inkscape:current-layer="g943"
     inkscape:document-rotation="0" />
  <g
     inkscape:groupmode="layer"
     inkscape:label="Image"
     id="g893">
    <g
       id="g943"
       transform="translate(-589.04381,3.8095238)">
      <path
         id="path916"
         style="fill:#ffff00;fill-opacity:1;stroke:#000000;stroke-width:8.29228;stroke-linecap:round;stroke-miterlimit:4;stroke-dasharray:none"
         inkscape:transform-center-y="-28.759204"
         d="m 845.884,11.459403 c 52.42653,-0.149939 47.73516,98.124677 90.23725,128.818917 44.20049,31.92079 139.68365,-4.84809 156.68005,46.95677 16.3433,49.81426 -78.5711,75.72103 -94.62922,125.62796 -16.69978,51.90123 47.77542,131.34894 3.75822,163.52203 -42.3258,30.93685 -96.29477,-51.32651 -148.7213,-51.17657 -54.52151,0.15593 -110.15685,86.02618 -154.35733,54.10539 -42.50209,-30.69424 19.05769,-107.44255 2.7144,-157.25681 C 684.5697,270.25223 585.70996,243.87526 602.40974,191.97403 618.46783,142.0671 710.48283,176.89739 752.80866,145.96054 796.82584,113.78745 791.36249,11.615334 845.884,11.459403 Z"
         sodipodi:nodetypes="sssssssssss" />
      <path
         id="path918"
         style="fill:#ffff81;fill-opacity:1;stroke:none;stroke-width:2.15518;stroke-linecap:round"
         inkscape:transform-center-y="-20.660419"
         d="m 828.98476,59.509327 c 37.66287,-0.107715 34.29262,70.492113 64.82583,92.542643 31.75334,22.93168 100.34775,-3.48283 112.55781,33.73343 11.741,35.78623 -56.44486,54.39748 -67.98091,90.25028 -11.99701,37.2855 34.32154,94.3602 2.69988,117.47313 -30.40657,22.22482 -69.17751,-36.87262 -106.84038,-36.76491 -39.16789,0.11202 -79.13594,61.80063 -110.88927,38.86895 -30.53321,-22.05053 13.69092,-77.186 1.95001,-112.97223 -12.21008,-37.21626 -83.23025,-56.1653 -71.23324,-93.4508 11.53602,-35.8528 77.63898,-10.83095 108.04557,-33.05578 31.62165,-23.11293 27.69681,-96.512693 66.8647,-96.624713 z"
         sodipodi:nodetypes="sssssssssss"
         inkscape:transform-center-x="1.385111e-05" />
      <path
         id="path920"
         style="fill:none;fill-opacity:1;stroke:#ae3f71;stroke-width:3.46961;stroke-linecap:round;stroke-miterlimit:4;stroke-dasharray:41.6353, 41.6353;stroke-dashoffset:0;stroke-opacity:1"
         inkscape:transform-center-y="-22.408245"
         d="m 846.26325,70.254295 c 0,0 37.1937,76.455585 70.30995,100.371545 34.43958,24.87164 122.08,36.5872 122.08,36.5872 0,0 -61.22005,58.9994 -73.73199,97.88526 -13.01192,40.43977 2.92828,127.4111 2.92828,127.4111 0,0 -75.02978,-39.99197 -115.87884,-39.87514 -42.48141,0.12149 -120.27025,42.15718 -120.27025,42.15718 0,0 14.84913,-83.71577 2.11497,-122.52944 -13.24303,-40.36468 -77.25942,-101.35653 -77.25942,-101.35653 0,0 84.20707,-11.74723 117.18599,-35.85222 34.29677,-25.06823 72.52131,-104.798955 72.52131,-104.798955 z"
         sodipodi:nodetypes="cscscscscsc"
         inkscape:transform-center-x="2.2410644e-05" />
      <path
         id="path922"
         style="fill:none;fill-opacity:1;stroke:#ae3f71;stroke-width:3.46961;stroke-linecap:round;stroke-miterlimit:4;stroke-dasharray:41.6353, 41.6353;stroke-dashoffset:0;stroke-opacity:1"
         inkscape:transform-center-y="-0.597198"
         d="m 892.77523,316.2556 -70.7852,5.91347 -27.49786,-65.49336 53.79057,-46.39059 60.74228,36.8224 z"
         sodipodi:nodetypes="cccccc"
         inkscape:transform-center-x="-14.393488" />
      <path
         style="fill:none;stroke:#ae3f71;stroke-width:3.46961;stroke-linecap:butt;stroke-linejoin:miter;stroke-miterlimit:4;stroke-dasharray:41.6353, 41.6353;stroke-dashoffset:0;stroke-opacity:1"
         d="m 845.884,11.459403 2.39874,198.825717"
         id="path924" />
      <path
         style="fill:none;stroke:#ae3f71;stroke-width:3.46961;stroke-linecap:butt;stroke-linejoin:miter;stroke-miterlimit:4;stroke-dasharray:41.6353, 41.6353;stroke-dashoffset:0;stroke-opacity:1"
         d="m 600.85714,196.00762 193.63503,60.66809"
         id="path926" />
      <path
         style="fill:none;stroke:#ae3f71;stroke-width:3.46961;stroke-linecap:butt;stroke-linejoin:miter;stroke-miterlimit:4;stroke-dasharray:41.6353, 41.6353;stroke-dashoffset:0;stroke-opacity:1"
         d="M 695.42095,478.88381 821.99003,322.16907"
         id="path928" />
      <path
         style="fill:none;stroke:#ae3f71;stroke-width:3.46961;stroke-linecap:butt;stroke-linejoin:miter;stroke-miterlimit:4;stroke-dasharray:41.6353, 41.6353;stroke-dashoffset:0;stroke-opacity:1"
         d="M 892.77523,316.2556 1005.5467,476.18667"
         id="path930" />
      <path
         style="fill:none;stroke:#ae3f71;stroke-width:3.46961;stroke-linecap:butt;stroke-linejoin:miter;stroke-miterlimit:4;stroke-dasharray:41.6353, 41.6353;stroke-dashoffset:0;stroke-opacity:1"
         d="M 909.02502,247.10752 1091.8781,190.02286"
         id="path932" />
    </g>
  </g>
</svg>
