<?xml version="1.0" encoding="utf-8"?>
<svg xmlns="http://www.w3.org/2000/svg" style="margin: auto; display: block; shape-rendering: auto;" width="289" height="250" preserveAspectRatio="xMidYMid">
<style type="text/css">
  text {
    text-anchor: middle; font-size: 64px; opacity: 0;
  }
</style>
<g style="transform-origin: 144.5px 125px 0px; transform: scale(1.04918);">
<g transform="translate(144.5,125)">
  <g transform="translate(0,0)"><g class="path" style="transform: matrix(1, 0, 0, 1, 0, 0); transform-origin: -109.018px 0.726069px 0px; animation: 1s linear -0.6s infinite normal forwards running bounce-41295976-234d-4651-ba66-10bc9d8ea765;"><path d="M21.23-15.43L21.23-15.43Q21.23-19.64 20.50-21.04L20.50-21.04L20.50-21.04Q19.76-22.45 17.08-22.45L17.08-22.45L17.08-22.45Q14.40-22.45 10.98-20.31L10.98-20.31L10.98-15.86L11.65-1.52L3.48 0L4.21-14.82L4.21-14.82Q3.96-23.00 2.87-29.46L2.87-29.46L10.25-31.05L10.25-31.05Q10.67-27.51 10.86-24.16L10.86-24.16L10.86-24.16Q11.77-25.38 12.93-26.57L12.93-26.57L12.93-26.57Q14.09-27.75 16.59-29.25L16.59-29.25L16.59-29.25Q19.09-30.74 21.66-30.74L21.66-30.74L21.66-30.74Q24.22-30.74 25.99-29.10L25.99-29.10L25.99-29.10Q27.75-27.45 28.24-24.58L28.24-24.58L28.24-24.58Q33.31-30.74 38.49-30.74L38.49-30.74L38.49-30.74Q41.72-30.74 43.62-28.58L43.62-28.58L43.62-28.58Q45.51-26.41 45.51-22.69L45.51-22.69L45.14-15.86L45.81-1.22L37.58 0.30L38.31-15.43L38.31-15.43Q38.31-19.64 37.58-21.04L37.58-21.04L37.58-21.04Q36.84-22.45 34.22-22.45L34.22-22.45L34.22-22.45Q31.60-22.45 28.30-20.43L28.30-20.43L28.06-15.86L28.73-1.22L20.50 0.30L21.23-15.43" fill="#5f4da6" stroke="none" stroke-width="none" transform="translate(-133.35831451416016,16.101067810058595)" style="fill: rgb(95, 77, 166);"></path></g><g class="path" style="transform: matrix(1, 0, 0, 1, 0, 0); transform-origin: -70.8633px 0.73107px 0px; animation: 1s linear -0.54s infinite normal forwards running bounce-41295976-234d-4651-ba66-10bc9d8ea765;"><path d="M63.50-6.22L63.50-6.22L63.50-6.22Q65.27-6.22 67.22-7.14L67.22-7.14L67.22-7.14Q69.17-8.05 70.27-8.97L70.27-8.97L71.37-9.88L74.18-6.47L74.18-6.47Q73.57-5.43 72.28-4.09L72.28-4.09L72.28-4.09Q71.00-2.75 69.69-1.80L69.69-1.80L69.69-1.80Q68.38-0.85 66.22-0.09L66.22-0.09L66.22-0.09Q64.05 0.67 61.73 0.67L61.73 0.67L61.73 0.67Q56.79 0.67 53.68-3.08L53.68-3.08L53.68-3.08Q50.57-6.83 50.57-12.75L50.57-12.75L50.57-12.75Q50.57-20.19 54.90-25.80L54.90-25.80L54.90-25.80Q59.23-31.41 65.03-31.41L65.03-31.41L65.03-31.41Q69.48-31.41 71.95-28.91L71.95-28.91L71.95-28.91Q74.42-26.41 74.42-21.90L74.42-21.90L74.42-21.90Q74.42-19.21 73.50-15.80L73.50-15.80L72.28-14.52L57.03-13.12L57.03-13.12Q58.07-6.22 63.50-6.22zM63.50-25.13L63.50-25.13L63.50-25.13Q60.82-25.13 58.99-22.97L58.99-22.97L58.99-22.97Q57.16-20.80 56.85-17.45L56.85-17.45L67.22-18.73L67.22-18.73Q67.41-20.13 67.41-21.04L67.41-21.04L67.41-21.04Q67.41-25.13 63.50-25.13" fill="#5f4da6" stroke="none" stroke-width="none" transform="translate(-133.35831451416016,16.101067810058595)" style="fill: rgb(95, 77, 166);"></path></g><g class="path" style="transform: matrix(1, 0, 0, 1, 0, 0); transform-origin: -41.3683px 0.726069px 0px; animation: 1s linear -0.48s infinite normal forwards running bounce-41295976-234d-4651-ba66-10bc9d8ea765;"><path d="M97.42-15.43L97.42-15.43Q97.42-19.64 96.68-21.04L96.68-21.04L96.68-21.04Q95.95-22.45 93.27-22.45L93.27-22.45L93.27-22.45Q90.58-22.45 87.17-20.31L87.17-20.31L87.17-15.86L87.84-1.52L79.67 0L80.40-14.82L80.40-14.82Q80.15-23.00 79.06-29.46L79.06-29.46L86.44-31.05L86.44-31.05Q86.86-27.51 87.05-24.16L87.05-24.16L87.05-24.16Q87.96-25.38 89.12-26.57L89.12-26.57L89.12-26.57Q90.28-27.75 92.78-29.25L92.78-29.25L92.78-29.25Q95.28-30.74 98.06-30.74L98.06-30.74L98.06-30.74Q100.83-30.74 102.72-28.58L102.72-28.58L102.72-28.58Q104.61-26.41 104.61-22.69L104.61-22.69L104.25-15.86L104.92-1.22L96.68 0.30L97.42-15.43" fill="#5f4da6" stroke="none" stroke-width="none" transform="translate(-133.35831451416016,16.101067810058595)" style="fill: rgb(95, 77, 166);"></path></g><g class="path" style="transform: matrix(1, 0, 0, 1, 0, 0); transform-origin: -14.0433px -2.77893px 0px; animation: 1s linear -0.42s infinite normal forwards running bounce-41295976-234d-4651-ba66-10bc9d8ea765;"><path d="M110.47-29.52L114.01-29.52L114.01-36.17L122.24-37.76L121.45-29.52L128.83-29.52L128.16-24.52L121.21-24.52L120.90-11.77L120.90-11.77Q120.90-8.91 121.45-7.96L121.45-7.96L121.45-7.96Q122.00-7.01 123.46-7.01L123.46-7.01L123.46-7.01Q124.93-7.01 127.37-7.69L127.37-7.69L127.73-3.35L127.73-3.35Q123.71 0 120.66 0L120.66 0L120.66 0Q117.61 0 115.66-2.23L115.66-2.23L115.66-2.23Q113.70-4.45 113.70-8.05L113.70-8.05L114.07-14.88L114.01-24.52L109.80-24.52L110.47-29.52" fill="#5f4da6" stroke="none" stroke-width="none" transform="translate(-133.35831451416016,16.101067810058595)" style="fill: rgb(95, 77, 166);"></path></g><g class="path" style="transform: matrix(1, 0, 0, 1, 0, 0); transform-origin: 11.0867px 0.73107px 0px; animation: 1s linear -0.36s infinite normal forwards running bounce-41295976-234d-4651-ba66-10bc9d8ea765;"><path d="M131.45-12.75L131.45-12.75Q131.45-20.56 135.66-25.99L135.66-25.99L135.66-25.99Q139.87-31.41 145.52-31.41L145.52-31.41L145.52-31.41Q151.16-31.41 154.30-27.75L154.30-27.75L154.30-27.75Q157.44-24.09 157.44-18.06L157.44-18.06L157.44-18.06Q157.44-10.00 153.38-4.67L153.38-4.67L153.38-4.67Q149.33 0.67 143.17 0.67L143.17 0.67L143.17 0.67Q138.10 0.67 134.78-3.14L134.78-3.14L134.78-3.14Q131.45-6.95 131.45-12.75L131.45-12.75zM150.61-14.88L150.61-14.88L150.61-14.88Q150.61-23.73 144.57-23.73L144.57-23.73L144.57-23.73Q138.29-23.73 138.29-15.43L138.29-15.43L138.29-15.43Q138.29-11.10 140.06-8.66L140.06-8.66L140.06-8.66Q141.82-6.22 144.72-6.22L144.72-6.22L144.72-6.22Q147.62-6.22 149.11-8.45L149.11-8.45L149.11-8.45Q150.61-10.67 150.61-14.88" fill="#5f4da6" stroke="none" stroke-width="none" transform="translate(-133.35831451416016,16.101067810058595)" style="fill: rgb(95, 77, 166);"></path></g><g class="path" style="transform: matrix(1, 0, 0, 1, 0, 0); transform-origin: 37.9317px 0.576069px 0px; animation: 1s linear -0.3s infinite normal forwards running bounce-41295976-234d-4651-ba66-10bc9d8ea765;"><path d="M162.02-29.46L162.02-29.46L169.40-31.05L169.40-31.05Q169.95-26.35 170.13-22.14L170.13-22.14L170.13-22.14Q175.68-30.74 180.56-30.74L180.56-30.74L179.89-21.23L179.89-21.23Q176.35-21.23 174.31-20.59L174.31-20.59L174.31-20.59Q172.26-19.95 170.13-18.06L170.13-18.06L170.13-15.86L170.80-1.52L162.63 0L163.36-14.82L163.36-14.82Q163.11-23.00 162.02-29.46" fill="#5f4da6" stroke="none" stroke-width="none" transform="translate(-133.35831451416016,16.101067810058595)" style="fill: rgb(95, 77, 166);"></path></g><g class="path" style="transform: matrix(1, 0, 0, 1, 0, 0); transform-origin: 55.1017px 0.576069px 0px; animation: 1s linear -0.24s infinite normal forwards running bounce-41295976-234d-4651-ba66-10bc9d8ea765;"><path d="M184.40-29.52L192.58-31.05L191.84-15.86L192.52-1.52L184.34 0L185.07-14.82L184.40-29.52" fill="#5f4da6" stroke="none" stroke-width="none" transform="translate(-133.35831451416016,16.101067810058595)" style="fill: rgb(95, 77, 166);"></path></g><g class="path" style="transform: matrix(1, 0, 0, 1, 0, 0); transform-origin: 55.3767px -24.1589px 0px; animation: 1s linear -0.18s infinite normal forwards running bounce-41295976-234d-4651-ba66-10bc9d8ea765;"><path d="M183.98-39.99L183.98-39.99L183.98-39.99Q183.98-42.03 185.56-43.65L185.56-43.65L185.56-43.65Q187.15-45.26 189.22-45.26L189.22-45.26L189.22-45.26Q191.30-45.26 192.39-44.13L192.39-44.13L192.39-44.13Q193.49-43.01 193.49-40.75L193.49-40.75L193.49-40.75Q193.49-38.49 191.94-36.87L191.94-36.87L191.94-36.87Q190.38-35.26 188.34-35.26L188.34-35.26L188.34-35.26Q186.29-35.26 185.14-36.60L185.14-36.60L185.14-36.60Q183.98-37.94 183.98-39.99" fill="#5f4da6" stroke="none" stroke-width="none" transform="translate(-133.35831451416016,16.101067810058595)" style="fill: rgb(95, 77, 166);"></path></g><g class="path" style="transform: matrix(1, 0, 0, 1, 0, 0); transform-origin: 73.6167px -2.77893px 0px; animation: 1s linear -0.12s infinite normal forwards running bounce-41295976-234d-4651-ba66-10bc9d8ea765;"><path d="M198.13-29.52L201.67-29.52L201.67-36.17L209.90-37.76L209.11-29.52L216.49-29.52L215.82-24.52L208.86-24.52L208.56-11.77L208.56-11.77Q208.56-8.91 209.11-7.96L209.11-7.96L209.11-7.96Q209.66-7.01 211.12-7.01L211.12-7.01L211.12-7.01Q212.59-7.01 215.03-7.69L215.03-7.69L215.39-3.35L215.39-3.35Q211.37 0 208.32 0L208.32 0L208.32 0Q205.27 0 203.31-2.23L203.31-2.23L203.31-2.23Q201.36-4.45 201.36-8.05L201.36-8.05L201.73-14.88L201.67-24.52L197.46-24.52L198.13-29.52" fill="#5f4da6" stroke="none" stroke-width="none" transform="translate(-133.35831451416016,16.101067810058595)" style="fill: rgb(95, 77, 166);"></path></g><g class="path" style="transform: matrix(1, 0, 0, 1, 0, 0); transform-origin: 98.7467px 0.73107px 0px; animation: 1s linear -0.06s infinite normal forwards running bounce-41295976-234d-4651-ba66-10bc9d8ea765;"><path d="M219.11-12.75L219.11-12.75Q219.11-20.56 223.32-25.99L223.32-25.99L223.32-25.99Q227.53-31.41 233.17-31.41L233.17-31.41L233.17-31.41Q238.82-31.41 241.96-27.75L241.96-27.75L241.96-27.75Q245.10-24.09 245.10-18.06L245.10-18.06L245.10-18.06Q245.10-10.00 241.04-4.67L241.04-4.67L241.04-4.67Q236.99 0.67 230.82 0.67L230.82 0.67L230.82 0.67Q225.76 0.67 222.44-3.14L222.44-3.14L222.44-3.14Q219.11-6.95 219.11-12.75L219.11-12.75zM238.27-14.88L238.27-14.88L238.27-14.88Q238.27-23.73 232.23-23.73L232.23-23.73L232.23-23.73Q225.94-23.73 225.94-15.43L225.94-15.43L225.94-15.43Q225.94-11.10 227.71-8.66L227.71-8.66L227.71-8.66Q229.48-6.22 232.38-6.22L232.38-6.22L232.38-6.22Q235.28-6.22 236.77-8.45L236.77-8.45L236.77-8.45Q238.27-10.67 238.27-14.88" fill="#5f4da6" stroke="none" stroke-width="none" transform="translate(-133.35831451416016,16.101067810058595)" style="fill: rgb(95, 77, 166);"></path></g><g class="path" style="transform: matrix(1, 0, 0, 1, 0, 0); transform-origin: 125.037px 0.73107px 0px; animation: 1s linear 0s infinite normal forwards running bounce-41295976-234d-4651-ba66-10bc9d8ea765;"><path d="M259.56-5.67L259.56-5.67L259.56-5.67Q262.73-5.67 262.73-8.48L262.73-8.48L262.73-8.48Q262.73-9.46 261.35-10.31L261.35-10.31L261.35-10.31Q259.98-11.16 258.00-12.02L258.00-12.02L258.00-12.02Q256.02-12.87 254.03-13.94L254.03-13.94L254.03-13.94Q252.05-15.01 250.68-16.90L250.68-16.90L250.68-16.90Q249.31-18.79 249.31-21.23L249.31-21.23L249.31-21.23Q249.31-25.31 252.91-28.36L252.91-28.36L252.91-28.36Q256.51-31.41 261.20-31.41L261.20-31.41L261.20-31.41Q263.40-31.41 265.50-30.90L265.50-30.90L265.50-30.90Q267.61-30.38 269.56-29.28L269.56-29.28L265.47-21.84L265.47-21.84Q265.05-22.20 264.37-22.75L264.37-22.75L264.37-22.75Q263.70-23.30 261.84-24.19L261.84-24.19L261.84-24.19Q259.98-25.07 258.55-25.07L258.55-25.07L258.55-25.07Q257.12-25.07 256.35-24.43L256.35-24.43L256.35-24.43Q255.59-23.79 255.59-22.66L255.59-22.66L255.59-22.66Q255.59-21.53 257.69-20.40L257.69-20.40L257.69-20.40Q259.80-19.28 262.30-18.33L262.30-18.33L262.30-18.33Q264.80-17.38 266.91-15.22L266.91-15.22L266.91-15.22Q269.01-13.05 269.01-10.06L269.01-10.06L269.01-10.06Q269.01-5.79 265.50-2.56L265.50-2.56L265.50-2.56Q262.00 0.67 257.42 0.67L257.42 0.67L257.42 0.67Q254.49 0.67 251.96-0.61L251.96-0.61L251.96-0.61Q249.43-1.89 248.33-3.17L248.33-3.17L247.23-4.45L252.05-10.06L252.05-10.06Q252.42-9.58 253.09-8.85L253.09-8.85L253.09-8.85Q253.76-8.11 255.74-6.89L255.74-6.89L255.74-6.89Q257.73-5.67 259.56-5.67" fill="#5f4da6" stroke="none" stroke-width="none" transform="translate(-133.35831451416016,16.101067810058595)" style="fill: rgb(95, 77, 166);"></path></g></g>
</g>
</g>
<style id="bounce-41295976-234d-4651-ba66-10bc9d8ea765" data-anikit="">@keyframes bounce-41295976-234d-4651-ba66-10bc9d8ea765
{
  0% {
    animation-timing-function: cubic-bezier(0.1361,0.2514,0.2175,0.8786);
    transform: translate(0,0px) scaleY(1);
  }
  37% {
    animation-timing-function: cubic-bezier(0.7674,0.1844,0.8382,0.7157);
    transform: translate(0,-39.96px) scaleY(1);
  }
  72% {
    animation-timing-function: cubic-bezier(0.1118,0.2149,0.2172,0.941);
    transform: translate(0,0px) scaleY(1);
  }
  87% {
    animation-timing-function: cubic-bezier(0.7494,0.2259,0.8209,0.6963);
    transform: translate(0,19.900000000000002px) scaleY(0.602);
  }
  100% {
    transform: translate(0,0px) scaleY(1);
  }
}</style></svg>