<svg xmlns="http://www.w3.org/2000/svg" data-name="Layer 1" viewBox="0 0 700 550"><path fill="#020202" d="M339.85357 436.69253c-2.80721.51736-22.82237 6.02653-36.35085 2.94142 2.74967 7.03254 8.04808 9.19789 11.04687 9.19789 3.74638 0 10.87471 5.62413 14.05572 10.30933 3.19036 4.6852-14.05572 4.11989-18.93238 4.11989-4.87689 0-16.6903-5.99776-21.37561-7.86609-4.68508-1.87793-23.61746-4.69479-27.747-11.43991-4.11995-6.74517 5.05888-16.1251 5.05888-16.1251s26.62607 15.37774 36.37962 5.62413a7.03465 7.03465 0 00.07672 3.16177 6.69855 6.69855 0 001.36045 2.84564 14.25635 14.25635 0 00-.4311-3.066 13.52975 13.52975 0 00-1.00607-2.94143 22.45939 22.45939 0 01-2.62523-12.74292l.74736-7.12838s6.88879-.50783 9.09251-3.21926l.1628-.22994s4.05281 16.38376 16.98737 17.69637C339.29779 429.14257 342.67038 436.18476 339.85357 436.69253zM266.41411 188.531c1.52325 2.81686 3.10405 5.59542 4.81911 8.29731v.01912s-17.42806 3.9379-27.18162 17.62936a32.41353 32.41353 0 01-3.16182-4.254c-.96771-1.47548-1.83951-3.01809-2.67318-4.56064a88.82124 88.82124 0 01-4.31152-9.65782l-.92935-2.4719-.83344-2.51026c-.61332-1.66717-1.01566-3.38217-1.57144-5.06847-.49824-1.69582-.91975-3.41088-1.37963-5.1163-.4311-1.72465-.81449-3.44925-1.26478-5.17385.23953 1.763.53661 3.51627.80491 5.26964.37356 1.73419.71858 3.478 1.12092 5.21215a86.6369 86.6369 0 003.16182 10.204 66.8811 66.8811 0 004.56064 9.66736 36.95664 36.95664 0 006.47687 8.46018s.74736 33.7448 2.05986 36.74371c0 0-29.80685 24.09663-67.48961 17.61976 0 0 7.03266-82.11052 36.8395-112.77022 0 0 16.87252-18.28081 37.97024-13.77771 0 0 7.68411.37368 7.68411 18.18507a87.03659 87.03659 0 00-.05754 9.61946 31.89136 31.89136 0 001.69588 9.53327c.27789.76648.56537 1.49465.78572 2.242.11485.37368.20117.74736.28725 1.13063.05754.19158.12467.43111.19181.63233l.23953.57485C264.91939 185.70455 265.64757 187.1226 266.41411 188.531z"/><path fill="#020202" d="M271.23322,196.82831l-2.05985-4.31152-2.09822-4.32111c-.67087-1.44676-1.38945-2.87435-1.98336-4.3307l-.20117-.54613c-.05754-.17246-.1055-.31614-.15322-.50777-.0959-.40245-.18221-.80485-.29707-1.20724-.22994-.78566-.51742-1.55214-.78572-2.28991a36.816,36.816,0,0,1-1.86828-9.27455c-.17263-1.58092-.27789-3.17136-.37379-4.7714-.134-1.5905-.1724-3.19054-.29684-4.79058,7.87568,10.12729,8.05767,1.6863,8.05767,1.6863C269.36494,166.84884,276.48368,180.70321,271.23322,196.82831Z"/><path fill="#020202" d="M285.24239,89.05738a17.70344,17.70344,0,0,1,8.54959,7.75744,16.43364,16.43364,0,0,1,1.7946,5.57957c.1345.96894.146,1.96436.2042,2.93166l.05778,1.45138c.02573.48315.1055.96116.15532,1.44186a16.48277,16.48277,0,0,0,1.644,5.50635l.34082.63327.39976.59648a11.6045,11.6045,0,0,0,.87461,1.13478,13.0503,13.0503,0,0,0,2.13891,1.8974c.78151.57824,1.62875.94935,2.48114,1.61238a4.43164,4.43164,0,0,1,1.34782,2.77411,3.121,3.121,0,0,1-.33146,1.58823,3.43006,3.43006,0,0,1-1.11063,1.15875,7.84072,7.84072,0,0,1-2.86756,1.04186l.313-.37871a64.456,64.456,0,0,1-.69262,11.60248,20.92616,20.92616,0,0,1-1.65074,5.67582,6.40754,6.40754,0,0,1-1.96489,2.45336,3.64028,3.64028,0,0,1-1.59366.59795,2.949,2.949,0,0,1-.85192.0045l-.41637-.04783-.34689-.057a28.389,28.389,0,0,0-11.18769.38175,14.87479,14.87479,0,0,0-5.046,2.09728c-.1731.13316-.35789.2569-.52233.39561l-.454.44391a7.47418,7.47418,0,0,0-.75578,1.06034c-.5235.84162-1.08139,1.6429-1.6353,2.43107a36.95249,36.95249,0,0,0-3.01423,4.7762,8.80139,8.80139,0,0,0-1.04443,5.11788c.2683,1.75378.86338,3.63837,1.34876,5.49232.501,1.86553.99063,3.74791,1.37191,5.65905a50.44358,50.44358,0,0,1,1.13472,11.64744,39.88094,39.88094,0,0,1-1.9967,11.55487.72084.72084,0,0,1-.50876.472l-.01217.00286a51.34337,51.34337,0,0,0-7.69112,2.59932,55.13808,55.13808,0,0,0-7.24762,3.73855,44.38438,44.38438,0,0,0-6.54564,4.84677,39.857,39.857,0,0,0-5.48835,6.00641l.084-.273c.09707,6.13529.2283,12.274.47508,18.40571q.17086,4.59967.4311,9.19286c.08608,1.53115.19626,3.05908.31742,4.58573a26.58253,26.58253,0,0,0,.64374,4.45941l.01333.04473a.26764.26764,0,0,1-.0945.28807,93.4033,93.4033,0,0,1-15.33617,9.32233,102.78733,102.78733,0,0,1-16.76351,6.41091c-2.88768.801-5.809,1.4884-8.76316,2.014a85.02477,85.02477,0,0,1-8.93391,1.08495,79.34242,79.34242,0,0,1-17.97566-.84116.59277.59277,0,0,1-.49263-.638,374.39466,374.39466,0,0,1,5.98542-40.23816A262.87825,262.87825,0,0,1,195.05414,189.367a133.55958,133.55958,0,0,1,8.55778-18.55,73.0267,73.0267,0,0,1,12.24334-16.4589,53.78278,53.78278,0,0,1,17.30784-11.07195,35.87421,35.87421,0,0,1,20.42732-1.75928l-.58572.10655c2.72137-1.88073,5.01022-4.94321,4.98777-8.27322A9.27789,9.27789,0,0,0,256.57,128.5917l-.68186-1.09619c-.24374-.356-.54666-.67554-.81683-1.01595l-.83976-1.01215c-.30105-.35461-.61777-.69625-.90408-1.0618a21.25858,21.25858,0,0,1-4.18614-10.112,26.85147,26.85147,0,0,1,.67859-10.865,23.73323,23.73323,0,0,1,5.06075-9.57952,18.9491,18.9491,0,0,1,4.16392-3.503,16.51144,16.51144,0,0,1,2.42757-1.24034c.83928-.34719,1.70547-.60584,2.55645-.91267A30.71355,30.71355,0,0,1,285.24239,89.05738Zm-.07345.1669a30.44725,30.44725,0,0,0-21.03293-.6904c-.83812.31029-1.69822.57473-2.51763.92186a16.11544,16.11544,0,0,0-2.36207,1.23109,17.614,17.614,0,0,0-4.00556,3.48656,23.1352,23.1352,0,0,0-4.744,9.43479,25.97933,25.97933,0,0,0-.447,10.54073,20.2148,20.2148,0,0,0,4.17725,9.52326l1.77472,2.01764c.29683.35672.62244.68882.89495,1.06735l.77122,1.17782a10.61134,10.61134,0,0,1,1.72185,5.41139,10,10,0,0,1-1.6077,5.49963c-.25052.40777-.54689.78151-.82221,1.17121-.31461.35415-.60373.73479-.94221,1.0656a14.06115,14.06115,0,0,1-2.17775,1.86893.70873.70873,0,0,1-.549.11432l-.0372-.00766a34.28428,34.28428,0,0,0-19.44745,1.93144,51.97275,51.97275,0,0,0-16.66808,10.717,71.22265,71.22265,0,0,0-11.87142,16.05089,142.758,142.758,0,0,0-8.45906,18.28337,261.16218,261.16218,0,0,0-11.1795,38.856,382.616,382.616,0,0,0-6.42377,39.99806l-.49263-.63777a78.40671,78.40671,0,0,0,17.71485,1.04466,84.11768,84.11768,0,0,0,8.84947-.959c2.93119-.48263,5.835-1.1263,8.70982-1.88384a96.79179,96.79179,0,0,0,16.69054-6.253q4.022-1.93708,7.86-4.22912a71.62274,71.62274,0,0,0,7.39124-4.97561l-.08117.33251a25.64253,25.64253,0,0,1-.71788-4.633c-.1317-1.533-.25216-3.06622-.34807-4.59971q-.293-4.60054-.49028-9.20315-.393-9.2061-.70081-18.4139l-.00024-.00614a.42255.42255,0,0,1,.08445-.26719,40.82909,40.82909,0,0,1,5.52834-6.2498,45.29782,45.29782,0,0,1,6.62354-5.06928,56.38482,56.38482,0,0,1,7.35194-3.93744,52.4782,52.4782,0,0,1,7.89346-2.79931l-.52092.47461a40.59764,40.59764,0,0,0,1.81939-11.1495,48.8895,48.8895,0,0,0-1.15858-11.287c-.381-1.86336-.87017-3.70755-1.37683-5.55735a49.312,49.312,0,0,1-1.40185-5.7167,10.39064,10.39064,0,0,1,1.24911-6.01869,38.24592,38.24592,0,0,1,3.18358-4.95584c.56022-.78151,1.10946-1.55647,1.61-2.34518a9.20958,9.20958,0,0,1,.935-1.27267l.58409-.55964c.204-.16918.42058-.3145.63087-.47169a16.22923,16.22923,0,0,1,5.56764-2.27558,28.60911,28.60911,0,0,1,11.74323-.205l.364.06807.30058.03707a1.837,1.837,0,0,0,.585.01141,2.455,2.455,0,0,0,1.08817-.38193,5.33345,5.33345,0,0,0,1.62734-1.98821,19.96737,19.96737,0,0,0,1.66454-5.34642,63.1711,63.1711,0,0,0,.91157-11.41078.38505.38505,0,0,1,.31345-.37895,7.17176,7.17176,0,0,0,2.606-.87805,2.76267,2.76267,0,0,0,.91554-.90531,2.47547,2.47547,0,0,0,.27836-1.23157,3.85266,3.85266,0,0,0-1.10992-2.39219c-.67438-.54911-1.61168-1.01647-2.389-1.6112a13.53367,13.53367,0,0,1-2.18383-2.01646,12.03709,12.03709,0,0,1-.88466-1.19543l-.40117-.62549-.33894-.66016a17.22272,17.22272,0,0,1-1.63436-5.645c-.04749-.48813-.12445-.97443-.14714-1.46384l-.04818-1.46916c-.05146-.97555-.05521-1.9374-.18058-2.89628a16.14835,16.14835,0,0,0-1.72489-5.49554A17.48033,17.48033,0,0,0,285.16894,89.22428Z"/><path fill="#020202" d="M178.71191,268.83809c.46549,5.1049,1.14946,10.19337,2.06617,15.23114a74.04162,74.04162,0,0,0,4.01866,14.73494,20.401,20.401,0,0,0,1.77144,3.30206,6.07838,6.07838,0,0,0,2.61072,2.34991,22.505,22.505,0,0,0,3.61118.93841q1.87718.34685,3.77281.62894c5.05771.74215,10.15706,1.28086,15.25547,1.7946,10.19869,1.039,20.42265,1.88,30.65011,2.66171l30.69408,2.20576.00679.00053a.78147.78147,0,0,1,.7235.83087q-.94455,14.29515-2.02618,28.58136l-2.09891,28.57657-1.98968,28.58376-1.83717,28.59377-.16328-.30532a84.84526,84.84526,0,0,0,8.70445,4.20427,70.8404,70.8404,0,0,0,9.12432,3.14235,34.24131,34.24131,0,0,0,9.46069,1.29309c3.13352-.072,6.36365-.90718,8.52947-3.12008l-.0828.67175a22.43232,22.43232,0,0,1-1.98454-4.84093,23.4193,23.4193,0,0,1-.85847-5.14531,32.53661,32.53661,0,0,1,.26877-5.17209l.50269-5.06812a.66711.66711,0,0,1,.59227-.5973l.02666-.00269a20.65773,20.65773,0,0,0,6.93816-1.76688,3.64778,3.64778,0,0,0,2.08581-2.153,2.59143,2.59143,0,0,0,.02293-.7104l-.072-.94724c-.04234-.62947-.07391-1.25811-.09988-1.88705a48.77281,48.77281,0,0,1,1.3787-15.0926c.16514-.62315.43157-1.2287.6449-1.84331.221-.53859.4304-1.12817.63531-1.7067.40912-1.165.80186-2.34377,1.18923-3.52376q1.16-3.5424,2.25844-7.11171,2.2084-7.13184,4.27784-14.30905,4.14871-14.34883,7.83919-28.8199c2.43529-9.64823,4.70567-19.34564,6.42939-29.12475a133.52461,133.52461,0,0,0,1.862-14.71617,33.21348,33.21348,0,0,0-.23929-7.24756,6.81907,6.81907,0,0,0-1.23157-3.07259,12.57084,12.57084,0,0,0-2.52791-2.40406,38.7074,38.7074,0,0,0-6.31056-3.6827c-2.21939-1.06788-4.50193-2.02676-6.81137-2.92224-4.6238-1.78431-9.35192-3.32528-14.11022-4.76532-9.51917-2.88323-19.17939-5.33115-28.88148-7.583-9.70209-2.25763-19.44722-4.35667-29.2389-6.2112a.09114.09114,0,0,1,.03088-.17965A551.77428,551.77428,0,0,1,304.60142,263.814c4.7997,1.3846,9.56806,2.898,14.2639,4.65292,2.3457.88308,4.67175,1.83254,6.95429,2.90306a40.22224,40.22224,0,0,1,6.61722,3.7817,14.16671,14.16671,0,0,1,2.88839,2.70967,7.0313,7.0313,0,0,1,1.03554,1.82348,11.50787,11.50787,0,0,1,.54455,1.94641,34.777,34.777,0,0,1,.34081,7.65995,128.08229,128.08229,0,0,1-1.83482,14.94068c-1.71694,9.86033-3.97492,19.59318-6.39711,29.27673-2.421,9.68484-5.10777,19.297-7.933,28.86645q-2.12033,7.177-4.36673,14.31729-1.12734,3.56934-2.30616,7.12605c-.39672,1.18536-.79789,2.36879-1.22127,3.55264-.21474.59449-.42409,1.1791-.67953,1.792-.19438.562-.44046,1.09876-.59671,1.68056a48.7287,48.7287,0,0,0-1.45238,14.552c.018.61625.04187,1.23238.07579,1.84664l.05848.91712a4.09737,4.09737,0,0,1-.06339,1.14917,3.95052,3.95052,0,0,1-1.1635,1.9474,7.07671,7.07671,0,0,1-1.71366,1.16571,16.31225,16.31225,0,0,1-3.69585,1.25069,27.97072,27.97072,0,0,1-3.796.58022l.61871-.59975-.5635,5.06174a31.34028,31.34028,0,0,0-.324,4.98309,22.2287,22.2287,0,0,0,.75624,4.88865,21.43787,21.43787,0,0,0,1.80933,4.58637l.0117.02158a.54555.54555,0,0,1-.0945.6504,10.90392,10.90392,0,0,1-4.35456,2.57762,17.0415,17.0415,0,0,1-4.9314.74707A35.12743,35.12743,0,0,1,283.383,435.723a71.653,71.653,0,0,1-9.18818-3.295,95.78534,95.78534,0,0,1-8.74514-4.31287.32714.32714,0,0,1-.16328-.30561l1.91226-28.58879,1.76021-28.59885,1.65074-28.606q.81261-14.30385,1.72325-28.60119l.73028.8311L257.6975,313.228l-15.35114-1.202c-10.2312-.844-20.45843-1.74717-30.67162-2.84973-5.104-.58192-10.20431-1.20273-15.28915-2.02371q-1.90665-.30894-3.80861-.693a23.07481,23.07481,0,0,1-3.8093-1.0597,7.06183,7.06183,0,0,1-3.003-2.74546,21.31282,21.31282,0,0,1-1.81191-3.49451,71.21546,71.21546,0,0,1-3.73258-14.99535q-1.19085-7.62033-1.69027-15.31377a.09113.09113,0,0,1,.08492-.097A.093.093,0,0,1,178.71191,268.83809Z"/><path fill="#020202" d="M237.64772,256.8465a528.19328,528.19328,0,0,1,52.70758,14.15355c4.323,1.438,8.624,2.9578,12.85269,4.68549a94.21726,94.21726,0,0,1,12.40194,5.93612,24.92524,24.92524,0,0,1,5.59337,4.28058,6.92759,6.92759,0,0,1,1.8346,3.37844,5.00147,5.00147,0,0,1,.04889,1.05542l-.10035.85771-.2007,1.71547c-.58783,4.54544-1.32981,9.025-2.05822,13.51964q-2.31611,13.44982-4.80461,26.86c-1.6594,8.94093-3.27528,17.88929-5.04134,26.80952l-5.25724,26.76706c-1.83085,8.90725-3.6072,17.82455-5.51361,26.71677l4.6355-26.882,4.75642-26.85724c3.16464-17.90432,6.45231-35.78916,9.42935-53.71576.7532-4.47514,1.52325-8.96321,2.12839-13.43093l.20608-1.66962.10339-.83484a3.24761,3.24761,0,0,0-.02854-.64152,5.31726,5.31726,0,0,0-1.40068-2.51406,23.41913,23.41913,0,0,0-5.18473-3.99579,92.71705,92.71705,0,0,0-12.14416-5.89875c-4.18614-1.717-8.43427-3.3034-12.7086-4.821-8.55918-3.01166-17.24187-5.69478-25.96689-8.22843C255.22338,261.51,246.44713,259.14009,237.64772,256.8465Z"/><path fill="#020202" d="M272.41145 312.88363c3.16206-3.51533 6.42377-6.89949 9.85694-10.12916 1.71975-1.60787 3.4823-3.17458 5.34426-4.62064a32.79881 32.79881 0 012.8954-2.02746 10.02709 10.02709 0 013.228-1.3891 9.91566 9.91566 0 00-3.10335 1.57986 32.41888 32.41888 0 00-2.72955 2.18787c-1.74734 1.5484-3.39106 3.21188-4.99057 4.91432-3.18733 3.41246-6.21676 6.99452-9.09813 10.64845l-.00865.01076a.91218.91218 0 01-1.4325-1.12969C272.38525 312.91392 272.39905 312.89761 272.41145 312.88363zM244.7875 213.57048a188.84782 188.84782 0 0010.969 23.4398 47.4403 47.4403 0 003.54756 5.33437 18.676 18.676 0 002.119 2.30354 5.16712 5.16712 0 002.45775 1.35635 2.46976 2.46976 0 00.70806.02024l.77005-.02755c.51414-.0338 1.03016-.13269 1.54477-.19438a25.42076 25.42076 0 003.06429-.75174 51.4215 51.4215 0 005.973-2.27892c3.912-1.75635 7.71733-3.78837 11.46839-5.91378q5.62623-3.18926 11.17622-6.53874 11.069-6.7386 22.02426-13.698l.00444-.00281a.57341.57341 0 01.713.08 39.84337 39.84337 0 003.95526 3.43884 36.40341 36.40341 0 004.381 2.90172 25.6645 25.6645 0 004.79759 2.081 15.81071 15.81071 0 005.13537.63584l.00959-.00041a.35319.35319 0 01.13988.02222c2.15109.81964 4.34006 1.57466 6.551 2.21465a32.853 32.853 0 003.345.79818 9.867 9.867 0 001.67366.16023c.52865.003 1.14057-.12941 1.10876-.47a.25287.25287 0 01.32046-.26661l.03719.01082a12.67132 12.67132 0 004.01679.58888 2.09526 2.09526 0 001.6339-.65929 2.01552 2.01552 0 00-.03977-1.74126.30224.30224 0 01.34853-.39935l.00515.00117a15.28525 15.28525 0 002.76277.35836 3.85726 3.85726 0 002.48956-.55128c.57449-.493.26549-1.47425-.15041-2.24547a8.6972 8.6972 0 00-1.66477-2.16979 9.9747 9.9747 0 00-2.2367-1.59028c-.81122-.40742-1.71764-.791-2.57026-1.19185-1.72956-.79566-3.45539-1.60015-5.17185-2.43143-.858-.41619-1.71367-.83817-2.56441-1.28092-.4255-.22216-.84935-.44771-1.27274-.69332-.21192-.12205-.42245-.25117-.64116-.4021a1.81216 1.81216 0 01-.37847-.33146.67993.67993 0 01-.1476-.35871.68806.68806 0 01.07017-.34093.82781.82781 0 01.29824-.32608 2.44169 2.44169 0 01.86268-.30473c.259-.05.50994-.08047.75976-.1038a14.46059 14.46059 0 011.48115-.04871 15.71947 15.71947 0 012.94031.30824 13.35952 13.35952 0 011.4215.40789l1.35507.40742q1.361.39727 2.73353.75625c1.82758.47327 3.67059.91981 5.50612 1.21343a9.11678 9.11678 0 002.57728.14468c.05006-.01415.14315-.042.10011-.03252-.00444.00293-.0021.00644-.00772.014a.15849.15849 0 00-.05871.05555c-.01684.04766-.06292.09977-.06175.16626.00234.05444.00468.02082.00281-.01269l-.00141-.085-.00281-.17011-.01871-.30941a2.14 2.14 0 00-.35017-1.02432 6.10744 6.10744 0 00-1.87646-1.65793 21.90884 21.90884 0 00-2.433-1.28489c-1.69-.7797-3.46031-1.425-5.236-2.06354q-2.67224-.95727-5.3784-1.79378a77.08091 77.08091 0 00-10.96453-2.62078 51.63608 51.63608 0 00-5.5756-.55959c-.24678-.01842-.41052-.00286-.82221-.0597a2.67926 2.67926 0 01-1.00232-.38181 2.44123 2.44123 0 01-1.15765-1.88986 1.97749 1.97749 0 01.3352-1.2622 2.41922 2.41922 0 01.86525-.75613 5.07892 5.07892 0 011.67179-.50655c.25263-.04608.55415-.05754.7518-.09286.19462-.038.38433-.04865.58362-.1014l.60093-.169.6014-.2318a13.41339 13.41339 0 002.30827-1.28654 11.64791 11.64791 0 003.592-3.76457 4.72992 4.72992 0 00.63133-2.23716c-.0276-.17789-.05006-.35508-.06713-.53432a.82866.82866 0 00-.13076-.347.92728.92728 0 00-1.23437-.30269 1.02141 1.02141 0 00-.28608.24713q-.24666.295-.50689.57344a17.31133 17.31133 0 01-2.25 2.0074 18.84521 18.84521 0 01-5.30355 2.76055 37.2339 37.2339 0 01-5.7094 1.25069c-.92794.15958-1.88769.30882-2.716.51794a8.33123 8.33123 0 00-2.18921 1.23817c-1.50478 1.06917-2.98008 2.27184-4.45632 3.46118a100.807 100.807 0 01-9.17835 6.94693 12.18244 12.18244 0 01-2.74406 1.32115 24.341 24.341 0 01-2.912.54081c-1.909.26409-3.80322.43976-5.6998.63175-3.78919.36794-7.57534.67841-11.33856 1.13331-1.88021.22877-3.75738.48362-5.60554.84075a16.72726 16.72726 0 00-5.24273 1.644l-.0386.0228a.416.416 0 01-.56935-.1476.45367.45367 0 01-.02737-.05561L269.09173 197.458a.09118.09118 0 01.168-.071l7.61791 17.15632-.63508-.18035a11.07712 11.07712 0 011.34688-.70736c.46035-.165.91765-.367 1.38291-.5l1.39787-.39374 1.40653-.32041c1.87741-.4111 3.76557-.71478 5.65466-.99244 3.77913-.54409 7.566-.97513 11.34254-1.40068 1.88442-.21959 3.77609-.42473 5.6315-.71052a23.43186 23.43186 0 002.687-.53514 10.77394 10.77394 0 002.35693-1.194 99.97258 99.97258 0 008.89883-6.95938c1.46851-1.21706 2.92-2.44949 4.504-3.60141a9.7254 9.7254 0 012.76979-1.52238c1.01612-.2583 1.93962-.39654 2.8844-.56443a35.65463 35.65463 0 005.42308-1.19771 16.97617 16.97617 0 004.76859-2.49914 15.4469 15.4469 0 001.99694-1.79185q.2256-.2436.436-.49666a2.95775 2.95775 0 01.79017-.67566 2.82617 2.82617 0 013.788.91548 2.71273 2.71273 0 01.3897.96894l.112.88074a6.59532 6.59532 0 01-.85028 3.20318 13.50005 13.50005 0 01-4.18076 4.44929 14.94215 14.94215 0 01-2.67832 1.46373l-.73216.27379-.774.21111c-.26082.06521-.54853.091-.82175.13427-.272.04-.44818.03883-.66455.076a3.35674 3.35674 0 00-1.05261.28813.62673.62673 0 00-.21076.15678c-.01825.02637-.02129.01853-.02105.08912a.574.574 0 00.28888.44455c.21661.138.32912.13737.91975.16684a53.46466 53.46466 0 015.76764.62807 78.80316 78.80316 0 0111.19073 2.77317 91.04537 91.04537 0 0110.77014 4.07305 23.33032 23.33032 0 012.582 1.42764 7.41775 7.41775 0 012.29751 2.16149 3.59633 3.59633 0 01.53262 1.65869l.01708.40286-.00023.18649-.00024.09327a.87517.87517 0 01-.01193.164.98289.98289 0 01-.18689.49139 1.66178 1.66178 0 01-.16889.19585 1.70127 1.70127 0 01-.15813.109 1.63364 1.63364 0 01-.56233.21684 5.94316 5.94316 0 01-1.62828.02258c-.50128-.04649-.98455-.1224-1.465-.2062-1.91553-.34345-3.7658-.83022-5.61045-1.34378q-1.38138-.39052-2.75107-.8159c-.90315-.25736-1.85705-.645-2.68044-.84449a14.64722 14.64722 0 00-2.72066-.33409 13.43427 13.43427 0 00-1.36934.01924c-.22385.01667-.44584.04012-.65449.07649a1.78811 1.78811 0 00-.48467.13725c-.01755.00345.00959.00573.051-.07614a.3453.3453 0 00.03158-.17105.41.41 0 00-.06386-.20415 1.7295 1.7295 0 00.16163.13088c.17053.12216.36281.2466.56093.36514.39462.23924.80607.46917 1.21917.69519.82782.45164 1.66968.88765 2.51458 1.31806 1.69074.86016 3.39692 1.69664 5.10707 2.52435.86034.42566 1.70126.7973 2.58125 1.26a10.69685 10.69685 0 012.36465 1.7522 9.70843 9.70843 0 011.77073 2.35622 4.69277 4.69277 0 01.50923 1.447 1.7376 1.7376 0 01-.50993 1.58413 2.81948 2.81948 0 01-1.4608.62122 7.475 7.475 0 01-1.48466.08 15.8573 15.8573 0 01-2.88487-.39537l.35368-.398a2.5579 2.5579 0 01-.03977 2.28137 2.62208 2.62208 0 01-2.08582.90093 13.52048 13.52048 0 01-4.21561-.63514l.35742-.25561a3.07525 3.07525 0 01-.059.3045 1.90006 1.90006 0 01-.16724.27286 1.27317 1.27317 0 01-.47649.2973 2.99926 2.99926 0 01-.945.14836 10.38785 10.38785 0 01-1.781-.15116 33.38764 33.38764 0 01-3.41727-.77988c-2.24418-.62642-4.44485-1.36179-6.62938-2.16991l.149.0217a17.12016 17.12016 0 01-5.39478-.5976 26.46028 26.46028 0 01-5.01-2.02833 37.31578 37.31578 0 01-4.56578-2.86616 40.556 40.556 0 01-4.163-3.44884l.71719.07719c-7.19453 4.8149-14.42835 9.57823-21.82614 14.09337l-5.56343 3.36475c-1.8753 1.09069-3.74732 2.18284-5.65653 3.21786-3.79551 2.10406-7.65089 4.11877-11.65084 5.87056a52.81984 52.81984 0 01-6.16647 2.28593 26.77785 26.77785 0 01-3.24042.7614 13.42163 13.42163 0 01-3.43247.16684 6.35406 6.35406 0 01-3.12627-1.74583 19.85094 19.85094 0 01-2.21494-2.51523 48.54584 48.54584 0 01-3.51153-5.5453 118.51131 118.51131 0 01-5.59805-11.757c-1.66829-4.00076-3.23435-8.04006-4.62965-12.141a.09094.09094 0 01.05684-.11567A.09287.09287 0 01244.7875 213.57048z"/><path fill="#020202" d="M270.16 234.53487a21.18832 21.18832 0 002.79411-4.48029 31.53124 31.53124 0 001.84162-4.93823 35.33664 35.33664 0 00.98548-5.16549c.13474-.86589.139-1.74711.215-2.6178.03649-.87443.02175-1.75114.03579-2.62464l.00047-.03363a.45584.45584 0 11.91156.01445l-.0007.01918c-.05169.89367-.07555 1.78752-.15111 2.67751-.11532.887-.15906 1.78067-.3338 2.65838a35.92722 35.92722 0 01-1.22594 5.20291 31.85683 31.85683 0 01-2.07506 4.91017A21.29448 21.29448 0 01270.16 234.53487zM352.5334 228.91267l-11.645-5.06443 11.97832 4.21608a.45606.45606 0 01-.30292.86034zM358.49543 226.72744l-13.66976-6.39454 14.03092 5.55765a.45594.45594 0 01-.3359.84776z"/><path fill="#020202" d="M287.08049,237.91442c2.92909,1.67354,5.82448,3.40118,8.73462,5.10508l-.40959.00087c2.94265-1.97728,5.90355-3.93339,8.79848-5.97062,1.44372-1.018,2.89259-2.0471,4.2472-3.13341a15.1135,15.1135,0,0,0,3.32065-3.8431c.476-.72718.92771-1.47507,1.36232-2.2343l.63789-1.14805.17169-.31035a2.29737,2.29737,0,0,1,.2952-.40081,2.24933,2.24933,0,0,1,.82759-.55608,2.20829,2.20829,0,0,1,2.6657.86227c.13052.20848.24818.40175.3642.61046a9.33764,9.33764,0,0,1,1.05332,2.69991,4.76021,4.76021,0,0,1-.35648,3.1106,4.34906,4.34906,0,0,1-.43555.69221l-.40374.52333-.77215,1.04267a36.10315,36.10315,0,0,0-2.70593,4.42474l-.74315-1.16326c4.04673-.063,8.097-.035,12.14557.1293,4.04766.1576,8.09743.39964,12.12685.92636q1.51086.19439,3.014.47607c.51742.10889.963.16737,1.53823.33894a1.98456,1.98456,0,0,1,1.21612,1.28145,2.02325,2.02325,0,0,1-.26105,1.73074,2.13607,2.13607,0,0,1-.65964.59695c-.2407.12654-.47438.22608-.7118.33976a16.48384,16.48384,0,0,1-2.93353.93975,62.69664,62.69664,0,0,1-12.099,1.25607l.139-.60286c4.29023,2.08237,8.62327,4.07679,12.93807,6.1084l1.621.7573a6.20473,6.20473,0,0,1,1.614,1.09115A5.56629,5.56629,0,0,1,344.603,255.182a2.9624,2.9624,0,0,1,.33357,2.17968,1.70022,1.70022,0,0,1-.945.97133,3.41839,3.41839,0,0,1-1.076.24175,8.46039,8.46039,0,0,1-1.93331-.11795,21.1652,21.1652,0,0,1-3.57913-.94437l.92186-.42725a3.50389,3.50389,0,0,1-1.48068,1.75682,6.30033,6.30033,0,0,1-1.937.77677,12.26959,12.26959,0,0,1-1.95834.2969,15.33488,15.33488,0,0,1-1.96956.01824l.53333-.14912a6.98875,6.98875,0,0,1-1.44162.71882,12.10413,12.10413,0,0,1-1.42314.43766,18.61434,18.61434,0,0,1-2.88066.45742,10.168,10.168,0,0,1-3.01189-.29163c-.93122-.20363-1.81846-.418-2.7071-.59222a33.20542,33.20542,0,0,0-10.81038-.11292c-.905.12848-1.8105.24736-2.71107.42514l-1.35367.23953-1.429.21046a16.79159,16.79159,0,0,1-5.87711-.04853,9.60545,9.60545,0,0,1-2.88885-1.06631,7.08128,7.08128,0,0,1-1.27881-.929l-.58268-.54215-.49122-.62444a8.64248,8.64248,0,0,1-.8283-1.34086,10.57386,10.57386,0,0,1-.53707-1.458,9.73311,9.73311,0,0,1-.3766-3.08429l.931,1.00215a61.99264,61.99264,0,0,1-6.424-.70221c-2.10056-.30865-4.19059-.65092-6.279-1.00384-4.17538-.71514-8.34024-1.455-12.49387-2.321-1.04092-.22748-2.06687-.4342-3.13188-.74683a17.8104,17.8104,0,0,1-2.97868-1.40238c-1.8636-1.05051-3.64626-2.1978-5.4184-3.36118q-5.28275-3.53723-10.355-7.34855a.09128.09128,0,0,1-.01824-.12766.09237.09237,0,0,1,.1235-.02117c3.54077,2.3078,7.08856,4.60678,10.70606,6.7764,1.803,1.09022,3.6196,2.165,5.47641,3.12218A17.069,17.069,0,0,0,263.813,247.25c.97052.24743,2.02828.424,3.05867.6083q6.22132,1.10068,12.49387,2.01108c2.087.304,4.17608.5973,6.26424.85566,2.07272.24146,4.21234.53655,6.18471.59356a.95971.95971,0,0,1,.93145.98683l-.00047.0155a8.04851,8.04851,0,0,0,.33614,2.42043,8.72184,8.72184,0,0,0,.43508,1.1511,6.43529,6.43529,0,0,0,4.756,3.42966c3.3644.7387,6.9426-.38748,10.73132-.801a35.02233,35.02233,0,0,1,11.38838.27461c1.86781.35877,3.66732,1.0311,5.24531.92578a16.96847,16.96847,0,0,0,2.62593-.3814,11.811,11.811,0,0,0,1.24747-.35672,6.0654,6.0654,0,0,0,1.06712-.48379l.04608-.029a.79152.79152,0,0,1,.48771-.12017,13.92154,13.92154,0,0,0,1.74056.02058,10.762,10.762,0,0,0,1.7139-.21941,3.1445,3.1445,0,0,0,2.41727-1.5436l.00585-.01533a.71355.71355,0,0,1,.91648-.412,21.44051,21.44051,0,0,0,3.30639.96186,7.246,7.246,0,0,0,1.6243.16082,2.25433,2.25433,0,0,0,.66783-.11462.46984.46984,0,0,0,.2938-.24748,1.98353,1.98353,0,0,0-.23649-1.26437,4.44173,4.44173,0,0,0-.90151-1.29659,5.14172,5.14172,0,0,0-1.30618-.94818l-1.59507-.80817c-4.261-2.14249-8.504-4.32217-12.78953-6.41389a.3176.3176,0,0,1-.1462-.42473.32419.32419,0,0,1,.28514-.17831,55.24119,55.24119,0,0,0,11.96452-1.18226,15.1581,15.1581,0,0,0,2.8168-.93016c.21521-.10912.44468-.2138.648-.32538a1.50987,1.50987,0,0,0,.44607-.41988,1.36662,1.36662,0,0,0,.14784-1.16787,1.28985,1.28985,0,0,0-.81145-.81841c-.39462-.10883-.95321-.192-1.42735-.26725-.98993-.14667-1.98524-.2686-2.98522-.36017-3.99925-.3745-8.02984-.46807-12.05551-.48456-4.02708-.00134-8.0558.08064-12.08428.19129l-.00725.00017a.8011.8011,0,0,1-.82268-.77876.81282.81282,0,0,1,.08655-.38485,37.59816,37.59816,0,0,1,2.82358-4.66339c.26292-.3704.53239-.73689.8145-1.0946l.41636-.52479a2.74788,2.74788,0,0,0,.27766-.42847,3.16146,3.16146,0,0,0,.2421-2.07606,7.82525,7.82525,0,0,0-.851-2.24815c-.09661-.1807-.20772-.36777-.30994-.53678a.69063.69063,0,0,0-.21707-.21824.70458.70458,0,0,0-.62081-.05737.74917.74917,0,0,0-.27111.1731.79629.79629,0,0,0-.09988.13275c-.03462.04906-.10386.18262-.15392.26976l-.67133,1.16969c-.45777.77461-.93449,1.53986-1.44092,2.29061a25.81219,25.81219,0,0,1-1.64372,2.19044,11.72889,11.72889,0,0,1-2.03436,1.91974c-1.45284,1.08572-2.93539,2.06225-4.4259,3.03972-2.9878,1.93565-5.98892,3.83328-9.042,5.65583l-.01731.01035a.36881.36881,0,0,1-.39251-.00947c-2.80909-1.86594-5.63291-3.70819-8.423-5.60454a.09123.09123,0,0,1,.0966-.15462Z"/><path fill="#020202" d="M311.54729 241.19051a17.88319 17.88319 0 01-1.91295 4.89222 14.63448 14.63448 0 01-3.3761 4.117 9.12769 9.12769 0 01-4.93467 2.099 9.3182 9.3182 0 01-5.1501-1.07782 11.67358 11.67358 0 005.05771.37257 9.50325 9.50325 0 004.4521-2.10038 17.35156 17.35156 0 003.349-3.78369A31.98329 31.98329 0 00311.54729 241.19051zM337.45688 257.25725l-15.21219-7.81743 15.607 6.99593a.45588.45588 0 11-.37286.832zM330.868 259.5619l-10.79027-5.06 11.14535 4.22053a.45607.45607 0 11-.323.853z"/><path fill="#020202" d="M323.73356 246.06513a51.07762 51.07762 0 01-2.52137 6.7933 50.50865 50.50865 0 01-3.35387 6.4233 50.47274 50.47274 0 012.52137-6.7933A51.10527 51.10527 0 01323.73356 246.06513zM313.51569 244.84649a19.57322 19.57322 0 01.11859 5.41536 17.39392 17.39392 0 01-.49753 2.67821 7.14956 7.14956 0 01-1.12092 2.49927 22.6236 22.6236 0 00.42315-2.63728l.28982-2.63973A52.08952 52.08952 0 01313.51569 244.84649zM258.58938 131.981c5.34978 10.78034 19.39813 0 19.39813 0s-9.46795.18748-11.24905-5.812.375-12.374 3.37472-10.6866a11.517 11.517 0 014.96833 5.90575c.375 1.21865 5.06207 3.09349 5.06207 1.31239 0-1.55846-1.0048-12.66251-3.83079-18.80536a5.23228 5.23228 0 013.28478-7.30395q.08451-.02274.171-.04474c5.53079-1.40613 11.15079-3.4569 11.151-3.45709a17.6511 17.6511 0 00-5.71393-3.94853s-10.21789-5.15582-23.34179 0-16.77984 25.87282-7.1244 35.997c2.89064 3.031 3.93286 5.78465 3.97433 8.15544M278.45628 133.66835a6.01545 6.01545 0 001.03858 3.94422c.80116 1.07952 2.135 1.481 3.48253 2.03167 2.65751 1.07507 5.33583 2.12225 7.94211 3.39831a51.15923 51.15923 0 01-8.282-2.55324c-.67484-.29385-1.323-.52484-2.01143-.90174a4.64432 4.64432 0 01-1.713-1.5705A5.27584 5.27584 0 01278.45628 133.66835zM287.08049 109.10793a5.35307 5.35307 0 01.75835-2.80435 5.17773 5.17773 0 012.24956-2.10822 4.16231 4.16231 0 013.16253-.18567 4.9408 4.9408 0 011.34689.68438 6.22957 6.22957 0 011.02665 1.04361c-.5083-.0369-.94057-.16128-1.37916-.22093a8.46462 8.46462 0 00-1.24981-.09661 4.39113 4.39113 0 00-2.14056.42859 7.48187 7.48187 0 00-1.88933 1.33291C288.34761 107.74812 287.75042 108.39881 287.08049 109.10793zM300.77481 130.5798c-.69707.48093-1.28957.84157-1.8484 1.27829-.28514.20567-.55461.43046-.83016.66876-.284.2345-.54456.50005-.89169.76654a2.80075 2.80075 0 011.17426-2.16342 3.20513 3.20513 0 011.1394-.54637A2.325 2.325 0 01300.77481 130.5798zM297.76713 121.29437a5.24992 5.24992 0 00-.47859 1.72951 2.13885 2.13885 0 00.40865 1.58857 2.46511 2.46511 0 001.42852.70567c.28654.0207.56654.05567.85238.06011l.86783-.03976.04468-.002a.45749.45749 0 01.04187.914.50072.50072 0 01-.05708-.00093l-.95367-.07573c-.31789-.04468-.63718-.12357-.9504-.18971a3.01067 3.01067 0 01-1.64231-1.10291 2.48107 2.48107 0 01-.266-1.89026A5.35962 5.35962 0 01297.76713 121.29437zM293.13094 118.06161a.781.781 0 01-.7766-.70549l-.47906-4.90847a.78122.78122 0 011.55507-.15158l.47906 4.90847a.78113.78113 0 01-.70175.85332C293.1824 118.0602 293.1562 118.06161 293.13094 118.06161zM260.13606 312.57586c1.11344 4.61415 2.13845 9.24145 3.03411 13.88922.92444 4.64316 1.74314 9.303 2.54172 13.96613.76491 4.66859 1.50735 9.34087 2.145 14.03063q.99438 7.02841 1.64022 14.116-1.69508-6.91245-3.04394-13.88443c-.92373-4.64368-1.7429-9.3049-2.53938-13.96975-.763-4.67029-1.50548-9.34391-2.14266-14.03425C261.11219 322.00263 260.5536 317.3 260.13606 312.57586zM280.6069 434.40882c.5925 2.67131 1.11156 5.355 1.66711 8.0324l1.54664 8.05253a.56367.56367 0 01-.06643.39151l-.00491.00866a8.2657 8.2657 0 01-2.43272 2.64908 10.81385 10.81385 0 01-3.28346 1.33876 15.4791 15.4791 0 01-3.45165.37473 18.98083 18.98083 0 01-3.4582-.28725.741.741 0 01-.59578-.59157l-.007-.0383c-2.19412-11.77739-3.57211-23.69091-5.43571-35.52385-.46269-2.95867-.97683-5.90886-1.49448-8.85842-.49988-2.95247-1.0421-5.89793-1.60022-8.84069-1.10033-5.88829-2.24394-11.76932-3.293-17.66608-2.08956-11.7951-4.213-23.58453-6.03992-35.42349-1.80606-11.84236-3.62755-23.68214-5.08905-35.58186a.09114.09114 0 01.17964-.02994c2.48114 11.72978 4.5948 23.52079 6.72483 35.30905 2.10944 11.79171 3.922 23.63284 5.76881 35.46841.91881 5.91851 1.74336 11.85276 2.61142 17.77981.42573 2.96488.86759 5.92706 1.3518 8.88222.46619 2.95815.93636 5.91565 1.45752 8.86456 2.09447 11.79405 4.64017 23.51331 6.38471 35.36607l-.60233-.62964a17.627 17.627 0 003.14218.31537 14.04489 14.04489 0 003.13937-.27947 9.49109 9.49109 0 002.85634-1.09443 6.991 6.991 0 002.11669-2.10324l-.07134.39976-1.16045-8.1172c-.3469-2.71242-.73005-5.41876-1.04-8.13738a.0912.0912 0 01.17965-.03011zM195.65694 313.64848c-2.12839 11.792-4.43222 23.54734-6.75686 35.29834-2.39459 11.73645-4.723 23.48664-7.27312 35.19058l-7.76551 35.08771c-1.25729 5.85571-2.53213 11.70767-3.70732 17.58052l-1.79927 8.80157-1.73752 8.8145a.436.436 0 01-.35766.34444 18.78238 18.78238 0 01-3.40252.2107 15.429 15.429 0 01-3.39528-.43678 10.674 10.674 0 01-3.20978-1.38039 8.20912 8.20912 0 01-2.39459-2.64815.53848.53848 0 01-.06175-.37262l.00631-.032q3.3796-17.25266 6.93558-34.4683l3.52908-17.22129 3.63808-17.19848c2.38827-11.47341 4.952-22.91009 7.44294-34.362l3.84813-17.1545 3.95269-17.13251a.09108.09108 0 01.17825.03736l-3.2575 17.27819L176.707 347.14164c-2.31576 11.48856-4.559 22.99238-6.97769 34.45948l-3.57211 17.21222-3.68136 17.18941q-3.681 17.18951-7.485 34.35322l-.05544-.40438a7.04823 7.04823 0 001.96231 2.28435 9.61144 9.61144 0 002.82921 1.2994 14.07975 14.07975 0 003.1658.48467 17.96516 17.96516 0 003.21937-.12263l-.35742.34421 1.93518-8.77321 1.87342-8.78614c1.2732-5.85238 2.44675-11.72552 3.63808-17.595l6.92529-35.26314c2.34687-11.74639 4.91549-23.44647 7.41791-35.16034 2.57236-11.69926 5.16531-23.39425 7.93393-35.05257a.09119.09119 0 01.17847.03726z"/><path fill="#020202" d="M184.84456,308.41134,148.55932,450.9042s-8.9336,1.12085-11.60011-4.60883L172.3505,307.95459"/><path fill="#020202" d="M260.22519,313.0969l-2.1291.33117c-.71274.079-1.42688.12245-2.14172.17719-1.43063.13082-2.85961.12608-4.29094.19-2.86078.06543-5.72249.09058-8.58093.033-5.71712-.09836-11.4333-.23591-17.14129-.50163l-17.1193-.83923c-5.70565-.28187-11.40195-.68929-17.10269-1.00975l-17.1193-1.05566c-5.73723-.56555-11.5009-2.77394-15.546-6.995a23.69985,23.69985,0,0,1-4.70473-7.23225,26.221,26.221,0,0,1-2.02991-8.38123c-.61029-5.67852-1.33332-11.34744-1.9967-17.02082q-2.08068-17.01249-3.9941-34.03515l-1.91062-17.02339-.46783-4.27181a7.2533,7.2533,0,0,1,1.20911-4.69017,7.15664,7.15664,0,0,1,3.89656-2.86909,7.91382,7.91382,0,0,1,1.19507-.25678l1.08723-.12719c.72678-.07444,1.45636-.1324,2.18992-.167a25.547,25.547,0,0,1,4.4397.14684,12.6937,12.6937,0,0,1,4.40672,1.32034,7.47481,7.47481,0,0,1,1.9291,1.48407,6.46083,6.46083,0,0,1,.7373,1.00525,5.85917,5.85917,0,0,1,.52374,1.06905c.58642,1.38975.97706,2.76487,1.42547,4.14111,1.63133,5.511,3.029,11.05114,4.413,16.5996,2.71412,11.1064,5.19666,22.26093,7.52575,33.44914a.09116.09116,0,0,1-.17754.04128c-2.88324-11.0557-5.75665-22.1128-8.72854-33.13446-1.487-5.50723-2.99271-11.01932-4.70917-16.431-.4559-1.33232-.8959-2.69272-1.42338-3.93556a4.345,4.345,0,0,0-.41543-.85052,4.6311,4.6311,0,0,0-.527-.71666,5.64771,5.64771,0,0,0-1.45682-1.10238c-2.26009-1.18162-5.13233-1.33226-7.87218-1.20834-.69285.03555-1.38664.09344-2.08.1673l-1.03975.126a5.98694,5.98694,0,0,0-.89543.19678,5.2471,5.2471,0,0,0-2.85469,2.121,5.32449,5.32449,0,0,0-.87344,3.446l.432,4.24813,1.72746,17.05305q1.74,17.05125,3.28206,34.11778c.54923,5.68548,1.03882,11.37534,1.64138,17.05567a23.77157,23.77157,0,0,0,6.54658,15.22377,20.72234,20.72234,0,0,0,6.97932,4.62193,27.66014,27.66014,0,0,0,8.20387,1.80354c2.792.155,5.70191.13239,8.54327.25029l8.56877.30824c5.70589.29894,11.41412.54713,17.113.92022l17.09918,1.0401c5.6998.32637,11.39657.70315,17.09754.9428,5.69373.19684,11.41833.60788,17.08024.04538l.01216-.00123a.09081.09081,0,0,1,.02293.18011Z"/><path fill="#020202" d="M260.20771 313.00745c-9.62424 1.88531-60.77608-2.26027-83.55541-2.97135s-23.90424-21.22457-23.90424-21.22457l-7.82966-73.33778a6.27609 6.27609 0 012.72593-5.8695l.00812.002s7.06419 72.45584 9.314 78.3616c1.4155 3.71568 2.71968 7.72822 5.73357 11.08041a16.304 16.304 0 0011.25819 5.25152l15.6176.8619s14.08665 3.25 22.30261 3.34959l46.818 3.96755 1.43972.097zM464.009 313.4657l-17.436 142.67549s-8.718 2.24981-12.09273-3.09349l17.1548-139.582M436.984 330.19345a.38459.38459 0 01-.06456-.00561.3908.3908 0 01-.32093-.44958l2.99878-17.909a.40107.40107 0 01.44912-.32233.391.391 0 01.32187.44864l-.18246 1.112-2.81633 16.79977A.3915.3915 0 01436.984 330.19345zM432.18869 433.75742a.39.39 0 01-.39017-.39063.44942.44942 0 01.029-.14971l.36771-2.27459a.402.402 0 01.02059-.07485l2.69563-16.22341a.39865.39865 0 01.44912-.3214.39078.39078 0 01.32186.44959l-2.70686 16.28843a.39426.39426 0 01-.02807.0945l-.364 2.247a.39743.39743 0 01-.02152.0786A.3904.3904 0 01432.18869 433.75742z"/><path fill="#020202" d="M444.181 361.8225a.41284.41284 0 01-.38736-.41824v-.00889l8.16269-49.02951a.39079.39079 0 11.771.12819l-8.158 48.96541A.36584.36584 0 01444.181 361.8225zM417.92549 444.13015a.38615.38615 0 01-.06549-.00562.3908.3908 0 01-.32093-.44958l1.69541-10.136a.39512.39512 0 01.45-.32047.39083.39083 0 01.32094.44959l-1.69542 10.136A.39052.39052 0 01417.92549 444.13015zM536.48481 453.1588a17.61843 17.61843 0 01-2.74709-.2007.456.456 0 01-.36959-.356L503.98561 311.8999a.45592.45592 0 11.89262-.18619l29.317 140.38779c1.52981.18807 8.4303.763 10.92851-3.76182l-28.808-137.4807a.456.456 0 01.89262-.18713l28.84171 137.643a.45531.45531 0 01-.0421.30362C544.00284 452.47764 539.449 453.1588 536.48481 453.1588z"/><path fill="#020202" d="M515.97061,309.7895l35.47007,139.29172s8.9336,1.12085,11.60011-4.60883L528.24374,308.21312"/><path fill="#020202" d="M555.08456,215.4732l-7.82773,73.34374s-1.13051,20.5037-23.90494,21.2127c-22.784.71858-73.9377,4.85765-83.55722,2.97019l4.31152-3.38218c20.58989-.6611,57.5253-2.16535,74.733-4.79058l6.563-.25871a17.46277,17.46277,0,0,0,7.33931-1.715,16.1229,16.1229,0,0,0,5.86355-4.80976,26.97666,26.97666,0,0,0,3.57375-6.66845c.45988-1.17852.91976-2.32821,1.32232-3.52586.15322-.62279.34479-1.25512.46947-1.87792l.3352-1.84916c.83367-4.94391,1.48513-9.89735,2.10781-14.86038q1.768-14.8891,3.24814-29.79737c.9773-9.94525,1.90664-19.90008,2.68277-29.85492l-3.41095,29.77825c-1.13051,9.91647-2.2133,19.85213-3.46825,29.75907-.59415,4.95344-1.21683,9.91647-2.02173,14.822l-.31625,1.83962c-.11486.60362-.28748,1.16888-.43111,1.75331-.37356,1.17852-.843,2.3474-1.28372,3.50674a28.062,28.062,0,0,1-3.40136,6.53435,15.3679,15.3679,0,0,1-5.53794,4.70433,16.95445,16.95445,0,0,1-7.09978,1.79167l-3.80369.2683c3.37258-.6228,5.62425-1.303,6.33324-2.05038,3.13306-3.30551,9.12128-13.4807-2.19412-56.9504l.661-.52695s5.701-25.208,9.07333-32.51845c2.04091-4.43607,9.05415-4.41689,14.24729-3.72708A6.2737,6.2737,0,0,1,555.08456,215.4732Z"/><path fill="#fff" d="M521.5697,304.3672c-.843.16286-1.7532.3066-2.73049.45987l-8.41229.33538Z"/><path fill="#020202" d="M444.76723,182.744a34.63915,34.63915,0,0,0-1.22641,6.12237H431.72718c-.843-14.17056,9.27472-18.7312,9.27472-18.7312l5.9115,6.74517A35.60348,35.60348,0,0,0,444.76723,182.744Z"/><path fill="#020202" d="M522.55658,233.97441c-21.93116,20.52288-43.58467,15.464-43.58467,15.464,1.40841-4.21573-2.8168-8.15357-2.8168-8.15357a38.51075,38.51075,0,0,1-17.71555-12.80041L473.3479,205.0106a36.66413,36.66413,0,0,0,3.77492-4.94385,35.78093,35.78093,0,0,0,2.97025-5.46127,36.00321,36.00321,0,0,0-3.77516,4.93426,35.40664,35.40664,0,0,0-2.97,5.47086c-7.03266-35.71858-29.80708-16.14423-29.80708-16.14423a40.80583,40.80583,0,0,0,3.37258-11.986,25.672,25.672,0,0,1,12.36919-18.28086C490.49807,149.60276,522.55658,233.97441,522.55658,233.97441Z"/><path fill="#020202" d="M400.63123,267.70173a93.58591,93.58591,0,0,0-11.88312,3.09318c-1.88161.7249-3.85,1.46425-5.148,2.92124a18.88664,18.88664,0,0,0-3.57164,4.80368,13.50455,13.50455,0,0,0-.97356,2.78914,16.70485,16.70485,0,0,0-.34993,2.95482,29.70329,29.70329,0,0,0,.49777,6.00582,91.35154,91.35154,0,0,0,3.0865,11.81756c2.52629,7.78194,5.55385,15.41388,8.62281,23.02191,3.03177,7.62609,6.24436,15.18283,9.36923,22.77846l-.04749-.0907a14.88069,14.88069,0,0,0,1.978,2.40073,13.88525,13.88525,0,0,0,2.45049,1.93863,10.01349,10.01349,0,0,0,2.84207,1.19828,9.27747,9.27747,0,0,0,3.06405.20953l.03368-.002a.53575.53575,0,0,1,.21614.03257,55.11714,55.11714,0,0,0,8.2965,2.35044,43.96024,43.96024,0,0,0,8.58234.94279,29.0173,29.0173,0,0,0,8.51754-1.09718,20.93156,20.93156,0,0,0,3.96018-1.64138,17.89755,17.89755,0,0,0,3.45071-2.52728l-.07625.28433c-2.1436-7.04792-4.293-14.09846-6.6488-21.07814-1.16817-3.4927-2.36348-6.97645-3.62826-10.43009q-.93717-2.59443-1.96418-5.14636c-.3607-.838-.67812-1.70682-1.07975-2.51418l-.57941-1.22513-.6566-1.11-.025-.04216a.59786.59786,0,0,1,.21006-.8187.60466.60466,0,0,1,.28257-.08287q21.1527-.76876,42.2951-1.80559,10.56757-.54165,21.119-1.269c7.03265-.46888,14.06483-1.00355,21.046-1.81839a90.10264,90.10264,0,0,0,10.32243-1.69232,14.09751,14.09751,0,0,0,2.3354-.77063,1.8829,1.8829,0,0,0,.45029-.23971,1.3826,1.3826,0,0,0,.35766-.30058,8.15624,8.15624,0,0,0,.76817-.94355,15.57128,15.57128,0,0,0,2.11109-4.50029,40.15312,40.15312,0,0,0,1.27086-10.25407A92.87654,92.87654,0,0,0,530.953,275.365a193.21837,193.21837,0,0,0-3.46288-20.8134c-.76116-3.43984-1.53378-6.8816-2.37611-10.30612l-2.63809-10.25109a.09115.09115,0,0,1,.06339-.11222.093.093,0,0,1,.11158.06117c4.12462,13.49637,7.86329,27.17823,9.67963,41.26628a94.37159,94.37159,0,0,1,.74736,10.64085,41.68087,41.68087,0,0,1-1.181,10.7164,17.26321,17.26321,0,0,1-2.29986,5.06649,9.87106,9.87106,0,0,1-.8856,1.11969,4.07925,4.07925,0,0,1-1.3401.96162,14.70686,14.70686,0,0,1-2.67388.91069,91.53245,91.53245,0,0,1-10.55494,1.77c-14.07887,1.649-28.18979,2.39377-42.30282,3.01627-7.05674.29748-14.11326.5838-21.17281.76385-7.05815.19491-14.121.304-21.18076.45152l.46759-.94362.73192,1.27969.58011,1.28344c.40327.85156.70338,1.72249,1.05543,2.58324q.9919,2.59653,1.88488,5.21647c1.20373,3.49113,2.33424,7.002,3.43738,10.5208,2.19015,7.04265,4.37749,14.08156,6.44693,21.15936l.00164.00567a.27449.27449,0,0,1-.07813.27894,20.55263,20.55263,0,0,1-3.56346,2.6109,21.50872,21.50872,0,0,1-4.05982,1.72776,29.65437,29.65437,0,0,1-8.69533,1.20495,50.74007,50.74007,0,0,1-8.73555-.81455,55.93677,55.93677,0,0,1-8.51287-2.199l.24936.03046a10.35345,10.35345,0,0,1-3.44253-.153,11.149,11.149,0,0,1-3.19715-1.26091,15.1071,15.1071,0,0,1-2.7223-2.05284,16.02615,16.02615,0,0,1-2.23365-2.5988.42056.42056,0,0,1-.03415-.06087l-.01334-.03018c-3.35457-7.50405-6.52973-15.08728-9.64993-22.69747-3.06522-7.63176-5.99266-15.32891-8.48339-23.19617a82.1421,82.1421,0,0,1-2.97446-12.04925,30.87494,30.87494,0,0,1-.37731-6.26208,17.82353,17.82353,0,0,1,.44468-3.146,14.55192,14.55192,0,0,1,1.11834-2.99189,19.79889,19.79889,0,0,1,3.851-4.96479,8.56794,8.56794,0,0,1,2.63856-1.80611,25.69694,25.69694,0,0,1,2.91528-1.12724,84.06667,84.06667,0,0,1,12.063-2.6516.09118.09118,0,0,1,.03252.17941Z"/><path fill="#020202" d="M435.95355,263.28244c4.00486-.65953,8.0296-1.14022,12.06019-1.55788,4.03012-.429,8.06936-.7518,12.10954-1.0539l6.06495-.37818c.52467-.03146.97-.034,1.42735-.1024a8.13709,8.13709,0,0,0,1.35062-.29731,9.16451,9.16451,0,0,0,2.49751-1.21524,8.94666,8.94666,0,0,0,2.01518-1.96062l1.78687-2.44634c1.21379-1.6243,2.4229-3.25165,3.701-4.83368-.93941,1.8039-1.94805,3.56247-2.95224,5.32414l-1.54735,2.62733a9.63843,9.63843,0,0,1-2.145,2.42336,10.2102,10.2102,0,0,1-6.03922,2.2043l-6.04787.47309c-4.0348.26538-8.07076.51017-12.11609.64865C444.07438,263.28764,440.02391,263.37442,435.95355,263.28244Z"/><path fill="#020202" d="M481.59223,249.9818l.78993,5.50144a9.36414,9.36414,0,0,1-.71976,5.6125,9.14009,9.14009,0,0,1-3.95176,4.164,8.94853,8.94853,0,0,1-2.76394.96864c-.974.17491-1.851.24842-2.78054.38116-7.3316.99356-14.6646,1.96664-21.94964,3.23247-3.64042.64017-7.28412,1.2563-10.91424,1.945q-5.44239,1.04463-10.85763,2.2174c-3.60767.7925-7.19827,1.66477-10.75658,2.65417a105.0389,105.0389,0,0,0-10.52079,3.45,58.35351,58.35351,0,0,0-9.92852,4.82929c-3.06733,1.96851-6.04834,4.34655-7.71849,7.56885a10.96567,10.96567,0,0,0-.86058,2.52786,9.67517,9.67517,0,0,0-.10362,2.64557c.28725,1.81033.52,3.64042.88654,5.44016a96.67988,96.67988,0,0,0,2.90218,10.64612c4.65842,13.97361,11.43119,27.23243,19.08863,39.77624l.01614.02649.03392.06187q3.635,7.38183,7.08949,14.82845,3.40521,7.47771,6.62,15.042,3.20241,7.57,6.002,15.308c.90338,2.59,1.79506,5.18432,2.5202,7.83445a48.056,48.056,0,0,1,1.6767,8.05721.091.091,0,0,1-.18011.02537l-.00141-.00842a47.7306,47.7306,0,0,0-2.07318-7.89574c-.86549-2.58593-1.87015-5.12548-2.84511-7.67287-2.01611-5.074-4.24836-10.06127-6.45371-15.05769-2.23857-4.98333-4.56392-9.92847-6.91921-14.85881q-3.48627-7.41525-7.13745-14.75173l.05006.08807c-1.99482-3.17335-3.86427-6.37523-5.6163-9.66168-1.7712-3.27095-3.44018-6.596-5.03431-9.95682a151.99312,151.99312,0,0,1-8.14328-20.7744,96.49518,96.49518,0,0,1-2.59272-10.86985c-.316-1.83781-.50338-3.69416-.74174-5.54718a10.49309,10.49309,0,0,1,.19391-2.88183,11.69976,11.69976,0,0,1,.99976-2.69037c1.83342-3.38492,4.90332-5.76858,8.03708-7.73574a68.50169,68.50169,0,0,1,9.98723-4.95994c13.819-5.51477,28.40149-8.852,43.039-11.213q5.49923-.86333,11.01716-1.58232,5.51466-.74034,11.05458-1.26285c.90713-.09918,1.88091-.15555,2.734-.28338a7.90038,7.90038,0,0,0,2.48067-.77976,8.62272,8.62272,0,0,0,2.13143-1.51694,9.41494,9.41494,0,0,0,1.57027-2.11354,8.69655,8.69655,0,0,0,.92163-5.19846l-.45918-5.53893a.09126.09126,0,0,1,.18129-.02047Z"/><path fill="#020202" d="M472.34955 258.87454a23.2385 23.2385 0 01-2.52816 4.17667 22.994 22.994 0 01-3.26007 3.63434 22.98542 22.98542 0 012.52815-4.17667A23.26457 23.26457 0 01472.34955 258.87454zM434.35194 415.33569c-3.98591 0-13.47631-6.59641-14.66366-7.43382a.38845.38845 0 01-.15064-.42619c.47531-1.97471-11.0464-35.46151-18.90688-57.48741a.39051.39051 0 01.73543-.26292c1.96488 5.504 18.77027 52.7263 18.94524 57.65957 4.87572 3.41422 13.04684 8.2441 14.761 7.00762a.41239.41239 0 01.27135-.07111c.15906.01731 15.67323 1.65144 16.7745-6.777l-9.8684-54.64768a.39074.39074 0 01.76911-.13848l9.8787 54.70663a.4052.4052 0 01.00281.11649c-1.08911 8.914-15.81359 7.7-17.50713 7.53065A2.154 2.154 0 01434.35194 415.33569z"/><path fill="#020202" d="M452.48385 407.44784c.1993.04982.17591.09941.2545.13643l.16749.12655.32935.25906c.21684.17579.4318.354.64116.53841q.63192.54946 1.22875 1.13794c.7911.78812 1.54337 1.61559 2.26032 2.47313a43.66478 43.66478 0 013.86147 5.48454 14.30232 14.30232 0 012.08956 6.49956 10.95916 10.95916 0 01-1.84395 6.70845l.142-.40286c.07462 4.49959.06971 8.99912.1083 13.4987a.74408.74408 0 01-.7125.74982l-.0124.00047-4.07667.16631a.77158.77158 0 01-.80256-.73958l-.0007-.02328v-.01315l-.03556-5.62443c-.02105-1.87477.01076-3.7496.01333-5.62443l1.42665.4931c-2.21821 2.75551-4.48368 5.44407-6.839 8.06948-2.37377 2.60563-4.802 5.1639-7.34423 7.61375-.64654.602-1.273 1.22262-1.93635 1.80776a22.38153 22.38153 0 01-2.05587 1.73524 15.11093 15.11093 0 01-4.9031 2.248 26.89463 26.89463 0 01-10.59587.4756 33.5091 33.5091 0 01-5.184-1.14788 19.6196 19.6196 0 01-4.8942-2.12143A6.94949 6.94949 0 01412.69 451.12a3.84854 3.84854 0 01-.4676-.54385 1.82593 1.82593 0 01-.28069-.73993 2.35683 2.35683 0 01.31742-1.45168 6.25107 6.25107 0 01.79882-1.13729 24.76242 24.76242 0 014.09047-3.43557c2.90148-2.02681 5.96506-3.77883 9.00034-5.54249.75742-.44158 1.51671-.88163 2.254-1.33572a7.63723 7.63723 0 001.92816-1.51062 6.79028 6.79028 0 001.57635-4.402l.99648.5797a16.76535 16.76535 0 01-2.40792.93566l-1.21519.36134-1.22174.27181c-.81426.19339-1.63085.3466-2.44932.47146-.81753.14239-1.636.27508-2.45587.36976-3.27762.44584-6.56623.69642-9.85648.8473-3.29048.15362-6.58307.22374-9.88314.17514-1.6512-.03509-3.30171-.08438-4.96742-.21339-.83273-.06865-1.66968-.14427-2.54172-.30087-.10994-.01907-.21028-.02912-.32818-.05573l-.38689-.11626a3.16821 3.16821 0 01-.75742-.29713 3.12067 3.12067 0 01-1.20677-1.23671 4.13315 4.13315 0 01-.207-3.10908 5.52944 5.52944 0 011.49542-2.53792 2.66017 2.66017 0 011.68161-.79642c.26854-.03579.27508-.01555.49777-.05924.18363-.03783.35508-.05871.549-.10859.75531-.16585 1.53589-.3959 2.30664-.61964a95.64591 95.64591 0 009.15-3.28265c.74034-.31637 1.4767-.64256 2.177-.99747l.5207-.26853.39461-.28111a6.52773 6.52773 0 00.7766-.7104 21.449 21.449 0 002.6271-3.88246 70.64587 70.64587 0 003.992-8.83339l.00608-.0162a.77.77 0 01.99321-.44666.794.794 0 01.18338.09988 72.07812 72.07812 0 007.62516 4.93713 29.241 29.241 0 004.06147 1.92564 11.33858 11.33858 0 002.10313.57707 3.47522 3.47522 0 001.93681-.14906l.02457-.01146a.5208.5208 0 01.27227-.0448 26.63444 26.63444 0 004.679.06913 21.31754 21.31754 0 004.61655-.80017 11.67755 11.67755 0 004.1314-2.1236 8.97226 8.97226 0 001.57425-1.723A12.38927 12.38927 0 00452.48385 407.44784zm.05825.17275a7.36667 7.36667 0 01-.8959 2.16137 9.3324 9.3324 0 01-1.55109 1.87413 12.20932 12.20932 0 01-4.20251 2.4285 20.44745 20.44745 0 01-4.7431 1.04508 27.48321 27.48321 0 01-4.86987.08953l.2966-.05626a4.45117 4.45117 0 01-2.56394.33567 12.41943 12.41943 0 01-2.34336-.55485 30.43623 30.43623 0 01-4.30473-1.863c-1.38408-.70859-2.71856-1.49612-4.03363-2.30991-1.31578-.81923-2.5988-1.66285-3.87434-2.56821l1.18268-.36292a72.19406 72.19406 0 01-3.91013 9.14952 21.50654 21.50654 0 01-2.80768 4.2817 8.25378 8.25378 0 01-1.02946.94788l-.61122.424-.56958.29754c-.75975.38882-1.52068.72923-2.28511 1.0601a97.43082 97.43082 0 01-9.33087 3.39469c-.80116.23608-1.592.47462-2.43623.66485-.2028.0531-.43788.08818-.65566.1321-.17754.04784-.585.05942-.72139.08538a.94163.94163 0 00-.46292.29093c-.86244.78835-1.36466 2.52465-.887 3.32867a1.59314 1.59314 0 01.08094.15164l.11836.12286c.05871.09807.186.14737.28093.2245.0924.084.26175.08058.38432.13438l.1993.06772c.08093.01971.185.03205.27649.04848.74057.14216 1.53425.22567 2.334.30046 1.59951.14275 3.22452.2107 4.84836.264 3.25211.08555 6.51476.054 9.77086-.06029 3.25656-.11351 6.51079-.32749 9.73647-.68883.80982-.07666 1.611-.19029 2.41026-.313.8042-.10585 1.6-.23866 2.3843-.40883l1.1822-.23725 1.14665-.31678a15.65539 15.65539 0 002.18594-.79045l.11976-.04509a.64886.64886 0 01.83555.37912.659.659 0 01.04117.24572 8.02171 8.02171 0 01-2.04769 5.252 8.78069 8.78069 0 01-2.24465 1.66629c-.77216.44339-1.546.86022-2.3188 1.27963-3.08721 1.6732-6.17138 3.33891-9.08456 5.25788a21.386 21.386 0 00-4.0217 3.24867 3.04224 3.04224 0 00-.985 2.06927 1.60469 1.60469 0 00.56139.93531 6.36538 6.36538 0 00.97613.78508 24.55673 24.55673 0 009.8256 3.16861 25.35066 25.35066 0 0010.30091-.62028 14.24524 14.24524 0 004.55128-2.26675 21.49389 21.49389 0 001.909-1.72653c.63485-.598 1.23554-1.23478 1.85448-1.8498 2.43763-2.50453 4.76555-5.11987 7.038-7.78095 2.27389-2.6568 4.53374-5.34291 6.68436-8.08749a.79818.79818 0 011.12068-.136.80832.80832 0 01.306.62911c.00258 1.87483.03439 3.74966.01334 5.62443l-.03556 5.62443-.803-.77578 4.07854-.11491-.72466.7501c.03859-4.49958.03368-8.99911.10806-13.4987a.671.671 0 01.13708-.39637l.00514-.00678a8.76879 8.76879 0 001.33753-2.75312 10.71318 10.71318 0 00.42853-3.11353 13.32765 13.32765 0 00-1.77144-6.10582 43.64971 43.64971 0 00-3.53562-5.56923c-.66525-.87835-1.367-1.72985-2.10991-2.54517q-.55122-.61717-1.14034-1.19928c-.19508-.1952-.39578-.38438-.59859-.57128l-.30806-.27578-.15649-.13474C452.58631 407.69018 452.45485 407.653 452.5421 407.62059zM415.41348 256.82206a60.27826 60.27826 0 011.27109-9.269 35.25318 35.25318 0 011.29309-4.52655 18.95594 18.95594 0 012.1333-4.26549.456.456 0 01.74853.521l-.01217.01673-.00725.00918a18.21159 18.21159 0 00-2.22616 3.9686 34.72337 34.72337 0 00-1.487 4.3862A60.02328 60.02328 0 00415.41348 256.82206zM431.80039 188.91813c-2.16886 3.54129-4.40742 7.03633-6.60856 10.55611L418.46958 209.955a.62758.62758 0 01-1.15531-.36468l.00094-.02146c.26877-6.24588.64139-12.48562.957-18.72869l.12327-2.34091.06175-1.17039a6.6986 6.6986 0 01.17825-1.30606 7.79283 7.79283 0 011.05355-2.33366l1.16209-2.02435c1.5277-2.71 3.01329-5.44929 4.327-8.24808a11.79946 11.79946 0 012.92136-3.97187 14.401 14.401 0 011.96442-1.47285c.34783-.21432.70011-.42 1.065-.60473.43719-.21409.54853-.25935.70806-.4821a.80018.80018 0 00.1345-.64233c-.08163-.21274-.04748-.19982-.30221-.23748a16.59385 16.59385 0 00-2.18009.386l-4.56158 1.067c-.7656.17368-1.5305.34713-2.31342.48994a5.66986 5.66986 0 01-1.28489.12269 6.64 6.64 0 00-1.09683.01163c-1.54945.10872-3.12253.24275-4.70216.24006a11.434 11.434 0 01-4.733-.74982 3.90509 3.90509 0 01-.54526-.33888 5.2615 5.2615 0 01-.46432-.46093c-.2421-.31269-.48186-.62783-.706-.957a11.371 11.371 0 01-.63532-1.02046 5.67653 5.67653 0 01-.26947-.55555 1.75041 1.75041 0 01-.16561-.70227.23476.23476 0 01.1876-.23292l.04141-.00842a9.82044 9.82044 0 002.04932-.64841 3.33243 3.33243 0 001.57355-1.23314 1.60994 1.60994 0 00-.28163-1.75039 7.28679 7.28679 0 00-1.52115-1.47407.3294.3294 0 01-.12351-.3131l.47859-2.90937.11415-.72824a3.5715 3.5715 0 00.04023-.665 3.054 3.054 0 00-.33332-1.26045 2.70632 2.70632 0 00-.83274-.96736c-.353-.24058-.80771-.45514-1.24653-.70975a4.649 4.649 0 01-1.27929-1.00016 1.94214 1.94214 0 01-.37052-1.78939 6.676 6.676 0 01.73075-1.42852 11.60376 11.60376 0 01.89754-1.243 25.76714 25.76714 0 012.068-2.17476c.6856-.6835 1.30852-1.36677 1.11484-1.98273a13.56663 13.56663 0 00-1.11718-2.53476 18.1826 18.1826 0 01-2.11413-5.72191 9.66824 9.66824 0 01-.05777-1.60407c.02058-.45584.01286-.92788-.00374-1.40548-.04117-.95928-.117-1.94985-.14363-2.95423a15.7262 15.7262 0 01.83484-6.10792 12.89438 12.89438 0 013.59481-5.11292l.00889-.00772a.82839.82839 0 01.36584-.18356 23.84567 23.84567 0 015.37256-.527 13.80532 13.80532 0 015.41536 1.09642 10.9358 10.9358 0 012.34617 1.5474c.67461.541 1.35788 1.08092 2.03717 1.671a11.90823 11.90823 0 013.31036 4.44778 36.31889 36.31889 0 011.69167 5.06186 24.13088 24.13088 0 01.83765 5.31227c.05544 1.79219.01638 3.46083.16585 5.14618.12889 1.67326.39064 3.37686.66385 5.05771a16.57285 16.57285 0 00.51438 2.36436 1.491 1.491 0 00.06315.15128s.00094.00433-.00467-.00146a.22262.22262 0 00-.05685-.05994.57355.57355 0 00-.215-.1279.74872.74872 0 00-.4559-.024.67273.67273 0 00-.1876.08257.44736.44736 0 00-.08351.05725.85957.85957 0 00-.077.07994c-.02947.05094-.00772.00667-.007.01217.02035-.04468.04749-.11176.07416-.19111a9.7502 9.7502 0 00.26806-1.14987c.316-1.65255.42479-3.35814.83017-5.16063a5.07489 5.07489 0 011.382-2.67774 3.09043 3.09043 0 01.6863-.48035l.37544-.17508.309-.11591c.41356-.15391.84045-.303 1.28115-.42976a7.89664 7.89664 0 012.82733-.352 3.99929 3.99929 0 012.71879 1.36542 5.949 5.949 0 011.21425 2.61932 11.27418 11.27418 0 01.24749 2.72546 16.119 16.119 0 01-1.04537 5.24619 12.6377 12.6377 0 01-2.82008 4.53251 7.577 7.577 0 01-4.80695 2.27219l.24187-.17848c-.5076 1.1708-1.044 2.321-1.62571 3.45417-.2945.56449-.593 1.12706-.93 1.67067a5.27108 5.27108 0 01-1.2229 1.50349.09039.09039 0 01-.11088-.14269l.01544-.01257a5.19159 5.19159 0 001.07718-1.48828c.30338-.54964.57052-1.12162.8332-1.69431.51789-1.14887.99414-2.32236 1.43507-3.5003a.27548.27548 0 01.22713-.17713l.01521-.00158a6.895 6.895 0 004.25468-2.28231 11.73 11.73 0 002.465-4.29918 15.03361 15.03361 0 00.80326-4.90754 10.05 10.05 0 00-.302-2.4161 4.72283 4.72283 0 00-.99133-2.01167 2.577 2.577 0 00-1.81261-.85432 6.51046 6.51046 0 00-2.2809.35006c-.3876.12035-.77449.26438-1.16771.42046l-.29543.11807-.20889.10584a1.56325 1.56325 0 00-.36467.26877 3.61461 3.61461 0 00-.8697 1.9029c-.32514 1.5805-.41169 3.34305-.70314 5.09484a11.266 11.266 0 01-.29544 1.37952 3.65353 3.65353 0 01-.15462.415 1.73156 1.73156 0 01-.17192.29058 1.01862 1.01862 0 01-.18409.20012 1.45713 1.45713 0 01-.1455.10923 1.113 1.113 0 01-.26315.1107 1.011 1.011 0 01-.614-.02625 1.22377 1.22377 0 01-.34994-.21614 1.96066 1.96066 0 01-.16444-.181l-.09216-.13778a2.74829 2.74829 0 01-.21029-.43531 17.45827 17.45827 0 01-.65941-2.68114c-.29637-1.72828-.5642-3.44574-.7125-5.21981-.16421-1.76091-.1338-3.55527-.19439-5.21782a22.22751 22.22751 0 00-.80022-4.90783 34.70352 34.70352 0 00-1.61027-4.76029 10.27467 10.27467 0 00-2.83575-3.79193c-.61917-.55146-1.28583-1.09244-1.95319-1.64086a8.959 8.959 0 00-1.94594-1.33331c-2.82967-1.2794-6.41862-1.163-9.60525-.56257l.37427-.19111a11.18084 11.18084 0 00-3.17774 4.3938 14.61439 14.61439 0 00-.83133 5.489c.00514.9611.05894 1.93272.08117 2.938.007.50514.00538 1.0159-.02948 1.54185a8.09608 8.09608 0 00.01942 1.33917 17.84851 17.84851 0 001.84395 5.32706 13.79855 13.79855 0 011.13683 2.89616 2.12027 2.12027 0 01-.04328.981 2.537 2.537 0 01-.408.83256 8.02839 8.02839 0 01-1.07717 1.16829 24.86534 24.86534 0 00-2.061 2.02968 10.30942 10.30942 0 00-.85964 1.12139 6.21889 6.21889 0 00-.65309 1.164 1.01414 1.01414 0 00.17684.97992 3.87023 3.87023 0 001.0166.82374c.403.252.83882.46385 1.29144.78841a3.49092 3.49092 0 011.03882 1.27407 3.79827 3.79827 0 01.37169 1.57846 4.282 4.282 0 01-.07018.80268l-.13239.72514-.50783 2.90434-.12327-.31274a7.88227 7.88227 0 011.64068 1.63068 2.90988 2.90988 0 01.50361 1.12647 1.88222 1.88222 0 01-.20654 1.27724 3.872 3.872 0 01-1.865 1.47185 10.35308 10.35308 0 01-2.18991.66818l.22877-.24111a1.93463 1.93463 0 00.124.426 5.03429 5.03429 0 00.237.50075 9.80726 9.80726 0 00.61426.96133c.21988.31374.45777.61777.698.91941a5.07791 5.07791 0 00.37169.35806 3.39829 3.39829 0 00.45123.27012 10.95516 10.95516 0 004.46263.62285c1.54711-.01848 3.09-.17081 4.65584-.30233a8.41189 8.41189 0 011.24372-.0379 6.06944 6.06944 0 001.03672-.15444c.74969-.16362 1.50337-.36163 2.2554-.55987l4.53-1.22566a15.78315 15.78315 0 012.41868-.49532 1.46223 1.46223 0 01.89262.25924 1.439 1.439 0 01.527.79 1.9752 1.9752 0 01-.24888 1.59893 2.10318 2.10318 0 01-.557.58923 6.56673 6.56673 0 01-.57122.32847c-.32678.17912-.6435.37871-.95414.58473a13.09192 13.09192 0 00-1.73705 1.39437 10.42976 10.42976 0 00-2.47505 3.61088c-1.31273 2.87459-2.78125 5.65-4.29328 8.40077l-1.15039 2.05365a7.02477 7.02477 0 00-.8828 1.91325 5.04474 5.04474 0 00-.14877 1.0111l-.077 1.16952-.15415 2.33909c-.42409 6.23664-.7911 12.47673-1.26221 18.71062l-1.15413-.38614 7.05791-10.25775c2.392-3.393 4.74684-6.81079 7.17113-10.18232a.09119.09119 0 01.15181.10088z"/><path fill="#020202" d="M410.21074 132.87152a4.66385 4.66385 0 012.66125-2.49283 5.99956 5.99956 0 013.80837-.12637 8.61681 8.61681 0 013.23879 1.748 15.63184 15.63184 0 011.25308 1.28238 13.14776 13.14776 0 01.99063 1.48706 14.89916 14.89916 0 01-1.56232-.79835c-.49426-.27807-1.011-.50263-1.48068-.78116a16.3452 16.3452 0 00-2.92019-1.1801 7.14757 7.14757 0 00-2.94943-.254A7.76569 7.76569 0 00410.21074 132.87152zM416.77182 142.87484a.78189.78189 0 01-.77285-.67274l-.82057-5.85957a.78137.78137 0 111.54758-.21708l.82057 5.85957a.7808.7808 0 01-.77473.88982zM410.20958 158.00919a25.43443 25.43443 0 00-3.16441-1.4 9.29132 9.29132 0 00-1.63225-.43526 2.647 2.647 0 00-1.48864.075c-.08.0648-.15064.10749-.23742.17076-.08468.09544-.1862.18193-.25778.28157a2.0087 2.0087 0 00-.34713.60924 2.38143 2.38143 0 00.06573 1.41325 21.28129 21.28129 0 001.39531 3.07376.61622.61622 0 01-.26994.82888l-.00538.00275-.04515.02234c-1.14267.567-2.36 1.56074-2.454 2.55809a2.10541 2.10541 0 00.54058 1.48074c.2014.23479.43859.46116.66829.68572l.79508.62327.015.01175a.8115.8115 0 01.30386.73789 29.66529 29.66529 0 00-.222 6.38587 4.60263 4.60263 0 00.34853 1.38788c.18831.47029.41965.94426.66268 1.41992.48327.95192 1.03859 1.889 1.6049 2.8185.56326.94432 1.13706 1.84074 1.752 2.79751a5.78579 5.78579 0 01.83788 3.53264 6.95833 6.95833 0 01-.40841 1.724l-.5193 1.57068-1.03577 3.14224c-2.72511 8.3903-5.00882 16.91187-7.2813 25.43737q-1.73613 6.38457-3.55668 12.7441l-1.82033 6.35956a44.315 44.315 0 00-1.5015 6.29717 29.03473 29.03473 0 00.64 12.66936A18.69815 18.69815 0 00400.93368 267.12l-.08795-.04661a17.23956 17.23956 0 002.95153.96086 16.35731 16.35731 0 003.097.41661 10.77324 10.77324 0 003.091-.362 8.48682 8.48682 0 002.76371-1.46969l.00467-.00386a.09113.09113 0 01.12024.13661 8.184 8.184 0 01-2.731 1.79857 11.38864 11.38864 0 01-3.23879.65725 15.18689 15.18689 0 01-3.297-.22029 18.17429 18.17429 0 01-3.2196-.83888.37018.37018 0 01-.07415-.03731l-.01381-.00947a19.49129 19.49129 0 01-5.10379-4.50871l-.54408-.66795c-.17193-.22935-.31017-.48186-.4669-.72221-.30011-.48877-.6187-.96946-.90221-1.46858a23.23766 23.23766 0 01-1.34758-3.16417 23.59268 23.59268 0 01-1.25776-6.71482 32.08666 32.08666 0 01.35274-6.784 33.78631 33.78631 0 01.67461-3.33241c.30363-1.1232.64257-2.144.9642-3.20493l1.95272-6.31932q1.93964-6.32325 3.98942-12.61363c2.75833-8.37971 5.50542-16.76323 7.81112-25.27814l.85052-3.19721.42409-1.599a5.87216 5.87216 0 00.26923-1.50343 4.5794 4.5794 0 00-.82127-2.75371c-.62923-.8632-1.29917-1.78769-1.91951-2.70364-.61449-.93186-1.21238-1.87618-1.76068-2.8733a14.71154 14.71154 0 01-.7532-1.56664 6.33976 6.33976 0 01-.46479-1.80425 28.91935 28.91935 0 01.30362-6.8023l.31883.74934-.92139-.74841a11.42479 11.42479 0 01-.832-.91419 3.555 3.555 0 01-.76958-2.581 3.81967 3.81967 0 011.33612-2.262 7.73552 7.73552 0 012.0491-1.27027l-.32047.85367a19.87849 19.87849 0 01-1.305-3.35387 3.37227 3.37227 0 01.07485-2.0208 2.95231 2.95231 0 01.56584-.86677 4.77988 4.77988 0 01.35462-.33935 3.61531 3.61531 0 01.498-.29532 3.33455 3.33455 0 011.95366.02673 9.89142 9.89142 0 011.69238.61209 19.45442 19.45442 0 013.06077 1.74507.09129.09129 0 01.02386.12678A.0944.0944 0 01410.20958 158.00919zM417.94444 209.60627a57.71909 57.71909 0 01.41169 6.45552c.04655 2.14769-.01333 4.29047-.0938 6.43225-.11462 2.14027-.25216 4.27942-.49566 6.41372a57.12885 57.12885 0 01-1.00654 6.3902 57.07238 57.07238 0 01-.4145-6.4557c-.04608-2.14763.0138-4.29041.09661-6.43213.117-2.14015.25426-4.2793.49824-6.4136A57.775 57.775 0 01417.94444 209.60627z"/><path fill="#020202" d="M443.62222 188.89772c-1.14384 3.81761-2.30664 7.62855-3.54568 11.41288-1.22759 3.78831-2.43412 7.584-3.73305 11.34739l-3.84814 11.30728c-1.30665 3.76076-2.6837 7.49685-4.094 11.22142l-.01356.03632a.47869.47869 0 01-.048.09245 28.59651 28.59651 0 01-2.40815 3.11569 9.83542 9.83542 0 01-3.15458 2.5302 2.71263 2.71263 0 01-1.13589.20748 1.79028 1.79028 0 01-1.12092-.48052 2.64376 2.64376 0 01-.38151-.42987l-.27392-.38626c-.18269-.25754-.37356-.50853-.567-.75724a10.726 10.726 0 00-2.66172-2.53417l.12375.026a9.23547 9.23547 0 00-5.904 2.54342 11.496 11.496 0 00-3.032 5.76565c-.959 4.359-.22924 8.92122.8739 13.22362a40.98843 40.98843 0 002.21635 6.28243 20.14306 20.14306 0 003.51527 5.469 8.82813 8.82813 0 005.29677 2.95346 9.07868 9.07868 0 003.04768-.19654 11.80837 11.80837 0 001.49565-.48181l.73566-.29608.71531-.36321c3.81258-2.03 7.05909-5.19168 10.06747-8.46111a119.21117 119.21117 0 008.337-10.55974 257.29929 257.29929 0 0014.23419-23.03723.09127.09127 0 01.12328-.03819.09318.09318 0 01.0407.11772c-1.84068 4.14462-3.88135 8.1979-6.06354 12.177q-3.24277 5.98685-7.01324 11.68423c-1.25963 1.89506-2.55693 3.768-3.91246 5.60372q-2.06033 2.734-4.31994 5.32765a50.91409 50.91409 0 01-4.87924 4.88572 27.66758 27.66758 0 01-5.76249 3.98638l-.8056.38988-.8435.32444a13.65686 13.65686 0 01-1.742.52531 10.86656 10.86656 0 01-3.69468.1676 10.54427 10.54427 0 01-6.27594-3.58972 16.56062 16.56062 0 01-2.07553-2.87475 24.80081 24.80081 0 01-1.55787-3.12551 36.6906 36.6906 0 01-2.04676-6.58962c-.9256-4.45673-1.46968-9.1459-.35251-13.65888a12.10556 12.10556 0 013.28885-6.021 10.19788 10.19788 0 016.29325-2.75148l.00654-.00041a.21917.21917 0 01.1179.02649 11.14914 11.14914 0 012.98124 2.631c.21287.24719.42292.49695.62409.75273l.302.384a1.80891 1.80891 0 00.26971.274 1.19547 1.19547 0 001.352.05222 9.01392 9.01392 0 002.6706-2.40541 27.50431 27.50431 0 002.15085-3.07428l-.06152.12842c1.21472-3.79288 2.46242-7.57423 3.78053-11.3309l4.02638-11.245c1.32583-3.754 2.74406-7.47575 4.14123-11.20488 1.38571-3.73311 2.84768-7.43961 4.3286-11.13944a.09126.09126 0 01.17216.06006zM413.93678 167.95642a9.66451 9.66451 0 01.06549 2.22471 4.68129 4.68129 0 01-.237 1.12624 1.35269 1.35269 0 01-.90432.90256l.03579-.486a22.65322 22.65322 0 012.937 1.21454 8.89745 8.89745 0 012.65189 1.90354 2.1386 2.1386 0 01-.24748 3.3385 5.46123 5.46123 0 01-.69894.50274 2.30628 2.30628 0 01-.974.208 7.30679 7.30679 0 01-1.6601-.16947l.50315-.57573a4.84517 4.84517 0 01.22246 1.60331 3.02724 3.02724 0 01-.47532 1.61226 2.33082 2.33082 0 01-1.39226.96414 4.70044 4.70044 0 01-1.57682.1352c-.99016-.08157-1.96559-.1514-2.94663-.26613-.9794-.11006-1.95927-.20415-2.93656-.339.98712-.03316 1.97166-.02556 2.95668-.03386.98338-.018 1.97237.03 2.94709.02789a2.57266 2.57266 0 002.28465-.92373 3.20466 3.20466 0 00.08328-2.49283l-.00351-.01216a.4435.4435 0 01.29707-.55257.44991.44991 0 01.20959-.01111 6.46223 6.46223 0 001.44957.1345 1.90289 1.90289 0 00.55134-.093 5.64743 5.64743 0 00.57309-.40678 1.5215 1.5215 0 00.632-.99191 1.63078 1.63078 0 00-.45591-1.10853 9.04329 9.04329 0 00-2.34148-1.819 22.07256 22.07256 0 00-2.76067-1.37261l-.0262-.01094a.24813.24813 0 01.062-.47519.9708.9708 0 00.62666-.57427 4.3433 4.3433 0 00.33-1.00168A12.76975 12.76975 0 00413.93678 167.95642zM404.12662 161.64177l4.16251 1.93033-4.46192-1.06946a.458.458 0 11.21356-.89081A.4926.4926 0 01404.12662 161.64177z"/><path fill="#020202" d="M403.58113 168.26016a22.76527 22.76527 0 004.34567 2.47447 14.52421 14.52421 0 004.88461 1.22735 14.751 14.751 0 01-5.04484-.80075 23.38154 23.38154 0 01-4.70637-2.15307.4566.4566 0 01.47087-.78244c.01146.007.02269.01433.03322.0221zM403.22838 175.31282l11.76312 2.97674-11.95329-2.08529a.45608.45608 0 11.15672-.89859zM431.67455 165.44693c.16654-.369.338-.728.52209-1.075l.27532-.51853a.89763.89763 0 01.24725-.34052.39621.39621 0 01.13707-.05637.332.332 0 01.23392.05193.40169.40169 0 01.152.20485.861.861 0 01.04772.23356l-.13707-.25175a30.94565 30.94565 0 014.265 2.79347 23.50021 23.50021 0 011.938 1.67191A10.56075 10.56075 0 01441.005 170.134c-1.35484-1.03888-2.74313-1.95881-4.11153-2.93932-1.37121-.96917-2.73657-1.95652-4.06591-2.99557l-.07532-.05883a.18112.18112 0 01-.062-.19322c.00492-.01731.003-.06233.00726-.0597a.26953.26953 0 00.07625.08076.22677.22677 0 00.16421.03333.17579.17579 0 00.06924-.027c.02105-.03357-.06433.059-.11415.12585l-.39672.46151C432.23267 164.86822 431.956 165.16254 431.67455 165.44693zM412.8 116.19345a17.358 17.358 0 012.23131-3.65194 20.112 20.112 0 012.9871-3.11458 18.8848 18.8848 0 017.76691-3.86094 23.20425 23.20425 0 018.70678-.14959 27.49625 27.49625 0 018.2296 2.71832A32.982 32.982 0 01455.1692 119.76 47.18627 47.18627 0 01459.058 127.341a44.33982 44.33982 0 012.60581 8.13907c.32538 1.3925.39251 2.9002.77567 4.09275a9.50369 9.50369 0 002.01073 3.36148 25.409 25.409 0 006.62821 4.75882c4.923 2.59435 10.25133 4.48579 15.41383 6.89716a44.657 44.657 0 017.51054 4.26538 15.91085 15.91085 0 013.20908 3.09341 6.55979 6.55979 0 01.63929.951 5.93362 5.93362 0 01.51648.99981 15.37661 15.37661 0 01.82876 2.04284 15.89857 15.89857 0 01.425 8.66789 17.87929 17.87929 0 01-3.8603 7.61306.09111.09111 0 01-.14246-.113l.004-.00573a18.58234 18.58234 0 003.09329-7.66907 15.28417 15.28417 0 00-.86221-8.01469 13.9799 13.9799 0 00-.83554-1.84769 4.88175 4.88175 0 00-.48725-.86163 5.19687 5.19687 0 00-.57239-.78262 14.27108 14.27108 0 00-2.98265-2.64821 47.9305 47.9305 0 00-7.29884-3.92562c-5.0914-2.32774-10.39612-4.36813-15.42225-7.15832a25.08133 25.08133 0 01-6.897-5.31508 10.12146 10.12146 0 01-2.113-3.96216 5.71333 5.71333 0 01-.21333-1.11607c-.05848-.38619-.09239-.741-.11321-1.07852-.051-.691-.13544-1.38086-.237-2.0691a38.34907 38.34907 0 00-2.19763-8.084 37.10934 37.10934 0 00-3.80743-7.48616 31.2573 31.2573 0 00-2.58593-3.29925 33.03142 33.03142 0 00-3.03294-2.8747 30.46549 30.46549 0 00-7.00318-4.41473 27.28656 27.28656 0 00-15.97452-2.54962 20.13657 20.13657 0 00-13.11491 9.32338l-.004.00644a.091.091 0 01-.16093-.08415zM444.97963 146.99466c2.33236 2.09325 4.54192 4.2703 6.82938 6.35547 1.13612 1.04882 2.29564 2.06921 3.498 3.02663a21.24267 21.24267 0 001.87062 1.33577 5.6791 5.6791 0 002.10711.89122 5.05288 5.05288 0 01-2.31366-.495 14.32774 14.32774 0 01-2.0795-1.15472 30.331 30.331 0 01-3.69773-2.932A44.31757 44.31757 0 01444.97963 146.99466zM235.99105 313.4657l17.436 142.67549s8.718 2.24981 12.09273-3.09349L248.365 313.4657"/></svg>