<svg xmlns="http://www.w3.org/2000/svg" data-name="Layer 1" viewBox="0 0 1920 1080"><defs><pattern id="a" width="32" height="32" data-name="New Pattern" patternTransform="matrix(2.06 0 0 2.06 -123.73 -129.57)" patternUnits="userSpaceOnUse" viewBox="0 0 32 32"><rect width="32" height="32" fill="none"/><polygon fill="#fff" points="31.96 96 96 160.04 160.04 96 96 31.96 31.96 96"/><line x1="96" x2="31.96" y1="31.96" y2="96" fill="#fff" stroke="#000" stroke-miterlimit="10" stroke-width=".5"/><polygon fill="#fff" points="-.04 96 64 160.04 128.04 96 64 31.96 -.04 96"/><line x1="64" x2="-.04" y1="31.96" y2="96" fill="#fff" stroke="#000" stroke-miterlimit="10" stroke-width=".5"/><polygon fill="#fff" points="-32.04 96 32 160.04 96.04 96 32 31.96 -32.04 96"/><line x1="32" x2="-32.04" y1="31.96" y2="96" fill="#fff" stroke="#000" stroke-miterlimit="10" stroke-width=".5"/><line x1="32" x2="96.04" y1="31.96" y2="96" fill="#fff" stroke="#000" stroke-miterlimit="10" stroke-width=".5"/><polygon fill="#fff" points="-64.04 96 0 160.04 64.04 96 0 31.96 -64.04 96"/><line x2="-64.04" y1="31.96" y2="96" fill="#fff" stroke="#000" stroke-miterlimit="10" stroke-width=".5"/><line x2="64.04" y1="31.96" y2="96" fill="#fff" stroke="#000" stroke-miterlimit="10" stroke-width=".5"/><polygon fill="#fff" points="-96.04 96 -32 160.04 32.04 96 -32 31.96 -96.04 96"/><line x1="-32" x2="32.04" y1="31.96" y2="96" fill="#fff" stroke="#000" stroke-miterlimit="10" stroke-width=".5"/><polygon fill="#fff" points="-128.04 96 -64 160.04 .04 96 -64 31.96 -128.04 96"/><line x1="-64" x2=".04" y1="31.96" y2="96" fill="#fff" stroke="#000" stroke-miterlimit="10" stroke-width=".5"/><polygon fill="#fff" points="15.96 80 80 144.04 144.04 80 80 15.96 15.96 80"/><line x1="80" x2="15.96" y1="15.96" y2="80" fill="#fff" stroke="#000" stroke-miterlimit="10" stroke-width=".5"/><line x1="96.01" x2="31.97" y1="31.97" y2="96.01" fill="#fff" stroke="#000" stroke-miterlimit="10" stroke-width=".5"/><polygon fill="#fff" points="-16.04 80 48 144.04 112.04 80 48 15.96 -16.04 80"/><line x1="48" x2="-16.04" y1="15.96" y2="80" fill="#fff" stroke="#000" stroke-miterlimit="10" stroke-width=".5"/><line x1="64.01" x2="-.03" y1="31.97" y2="96.01" fill="#fff" stroke="#000" stroke-miterlimit="10" stroke-width=".5"/><line x1="31.99" x2="96.03" y1="31.97" y2="96.01" fill="#fff" stroke="#000" stroke-miterlimit="10" stroke-width=".5"/><polygon fill="#fff" points="-48.04 80 16 144.04 80.04 80 16 15.96 -48.04 80"/><line x1="16" x2="-48.04" y1="15.96" y2="80" fill="#fff" stroke="#000" stroke-miterlimit="10" stroke-width=".5"/><line x1="32.01" x2="-32.03" y1="31.97" y2="96.01" fill="#fff" stroke="#000" stroke-miterlimit="10" stroke-width=".5"/><line x1="16" x2="80.04" y1="15.96" y2="80" fill="#fff" stroke="#000" stroke-miterlimit="10" stroke-width=".5"/><line x1="-.01" x2="64.03" y1="31.97" y2="96.01" fill="#fff" stroke="#000" stroke-miterlimit="10" stroke-width=".5"/><polygon fill="#fff" points="-80.04 80 -16 144.04 48.04 80 -16 15.96 -80.04 80"/><line x1=".01" x2="-64.03" y1="31.97" y2="96.01" fill="#fff" stroke="#000" stroke-miterlimit="10" stroke-width=".5"/><line x1="-16" x2="48.04" y1="15.96" y2="80" fill="#fff" stroke="#000" stroke-miterlimit="10" stroke-width=".5"/><line x1="-32.01" x2="32.03" y1="31.97" y2="96.01" fill="#fff" stroke="#000" stroke-miterlimit="10" stroke-width=".5"/><polygon fill="#fff" points="-112.04 80 -48 144.04 16.04 80 -48 15.96 -112.04 80"/><line x1="-48" x2="16.04" y1="15.96" y2="80" fill="#fff" stroke="#000" stroke-miterlimit="10" stroke-width=".5"/><line x1="-64.01" x2=".03" y1="31.97" y2="96.01" fill="#fff" stroke="#000" stroke-miterlimit="10" stroke-width=".5"/><polygon fill="#fff" points="31.96 64 96 128.04 160.04 64 96 -.04 31.96 64"/><line x1="96" x2="31.96" y1="-.04" y2="64" fill="#fff" stroke="#000" stroke-miterlimit="10" stroke-width=".5"/><polygon fill="#fff" points="-.04 64 64 128.04 128.04 64 64 -.04 -.04 64"/><line x1="96.02" x2="31.98" y1="31.98" y2="96.02" fill="#fff" stroke="#000" stroke-miterlimit="10" stroke-width=".5"/><line x1="64" x2="-.04" y1="-.04" y2="64" fill="#fff" stroke="#000" stroke-miterlimit="10" stroke-width=".5"/><line x1="80.01" x2="15.97" y1="15.97" y2="80.01" fill="#fff" stroke="#000" stroke-miterlimit="10" stroke-width=".5"/><line x1="31.98" x2="96.02" y1="31.98" y2="96.02" fill="#fff" stroke="#000" stroke-miterlimit="10" stroke-width=".5"/><polygon fill="#fff" points="-32.04 64 32 128.04 96.04 64 32 -.04 -32.04 64"/><line x1="64.02" x2="-.02" y1="31.98" y2="96.02" fill="#fff" stroke="#000" stroke-miterlimit="10" stroke-width=".5"/><line x1="32" x2="-32.04" y1="-.04" y2="64" fill="#fff" stroke="#000" stroke-miterlimit="10" stroke-width=".5"/><line x1="48.01" x2="-16.03" y1="15.97" y2="80.01" fill="#fff" stroke="#000" stroke-miterlimit="10" stroke-width=".5"/><line x1="-.02" x2="64.02" y1="31.98" y2="96.02" fill="#fff" stroke="#000" stroke-miterlimit="10" stroke-width=".5"/><line x1="32" x2="96.04" y1="-.04" y2="64" fill="#fff" stroke="#000" stroke-miterlimit="10" stroke-width=".5"/><line x1="15.99" x2="80.03" y1="15.97" y2="80.01" fill="#fff" stroke="#000" stroke-miterlimit="10" stroke-width=".5"/><polygon fill="#fff" points="-64.04 64 0 128.04 64.04 64 0 -.04 -64.04 64"/><line x1="32.02" x2="-32.02" y1="31.98" y2="96.02" fill="#fff" stroke="#000" stroke-miterlimit="10" stroke-width=".5"/><line x2="-64.04" y1="-.04" y2="64" fill="#fff" stroke="#000" stroke-miterlimit="10" stroke-width=".5"/><line x1="16.01" x2="-48.03" y1="15.97" y2="80.01" fill="#fff" stroke="#000" stroke-miterlimit="10" stroke-width=".5"/><line x1="-32.02" x2="32.02" y1="31.98" y2="96.02" fill="#fff" stroke="#000" stroke-miterlimit="10" stroke-width=".5"/><line x2="64.04" y1="-.04" y2="64" fill="#fff" stroke="#000" stroke-miterlimit="10" stroke-width=".5"/><line x1="-16.01" x2="48.03" y1="15.97" y2="80.01" fill="#fff" stroke="#000" stroke-miterlimit="10" stroke-width=".5"/><polygon fill="#fff" points="-96.04 64 -32 128.04 32.04 64 -32 -.04 -96.04 64"/><line x1=".02" x2="-64.02" y1="31.98" y2="96.02" fill="#fff" stroke="#000" stroke-miterlimit="10" stroke-width=".5"/><line x1="-64.02" x2=".02" y1="31.98" y2="96.02" fill="#fff" stroke="#000" stroke-miterlimit="10" stroke-width=".5"/><line x1="-32" x2="32.04" y1="-.04" y2="64" fill="#fff" stroke="#000" stroke-miterlimit="10" stroke-width=".5"/><line x1="-48.01" x2="16.03" y1="15.97" y2="80.01" fill="#fff" stroke="#000" stroke-miterlimit="10" stroke-width=".5"/><polygon fill="#fff" points="-128.04 64 -64 128.04 .04 64 -64 -.04 -128.04 64"/><line x1="-64" x2=".04" y1="-.04" y2="64" fill="#fff" stroke="#000" stroke-miterlimit="10" stroke-width=".5"/><polygon fill="#fff" points="15.96 48 80 112.04 144.04 48 80 -16.04 15.96 48"/><line x1="80" x2="15.96" y1="-16.04" y2="48" fill="#fff" stroke="#000" stroke-miterlimit="10" stroke-width=".5"/><line x1="96.01" x2="31.97" y1="-.03" y2="64.01" fill="#fff" stroke="#000" stroke-miterlimit="10" stroke-width=".5"/><line x1="31.97" x2="96.01" y1="31.99" y2="96.03" fill="#fff" stroke="#000" stroke-miterlimit="10" stroke-width=".5"/><polygon fill="#fff" points="-16.04 48 48 112.04 112.04 48 48 -16.04 -16.04 48"/><line x1="80.02" x2="15.98" y1="15.98" y2="80.02" fill="#fff" stroke="#000" stroke-miterlimit="10" stroke-width=".5"/><line x1="48" x2="-16.04" y1="-16.04" y2="48" fill="#fff" stroke="#000" stroke-miterlimit="10" stroke-width=".5"/><line x1="64.01" x2="-.03" y1="-.03" y2="64.01" fill="#fff" stroke="#000" stroke-miterlimit="10" stroke-width=".5"/><line x1="96.03" x2="31.99" y1="31.99" y2="96.03" fill="#fff" stroke="#000" stroke-miterlimit="10" stroke-width=".5"/><line x1="15.98" x2="80.02" y1="15.98" y2="80.02" fill="#fff" stroke="#000" stroke-miterlimit="10" stroke-width=".5"/><line x1="31.99" x2="96.03" y1="-.03" y2="64.01" fill="#fff" stroke="#000" stroke-miterlimit="10" stroke-width=".5"/><line x1="-.03" x2="64.01" y1="31.99" y2="96.03" fill="#fff" stroke="#000" stroke-miterlimit="10" stroke-width=".5"/><polygon fill="#fff" points="-48.04 48 16 112.04 80.04 48 16 -16.04 -48.04 48"/><line x1="48.02" x2="-16.02" y1="15.98" y2="80.02" fill="#fff" stroke="#000" stroke-miterlimit="10" stroke-width=".5"/><line x1="16" x2="-48.04" y1="-16.04" y2="48" fill="#fff" stroke="#000" stroke-miterlimit="10" stroke-width=".5"/><line x1="32.01" x2="-32.03" y1="-.03" y2="64.01" fill="#fff" stroke="#000" stroke-miterlimit="10" stroke-width=".5"/><line x1="64.03" x2="-.01" y1="31.99" y2="96.03" fill="#fff" stroke="#000" stroke-miterlimit="10" stroke-width=".5"/><line x1="-16.02" x2="48.02" y1="15.98" y2="80.02" fill="#fff" stroke="#000" stroke-miterlimit="10" stroke-width=".5"/><line x1="16" x2="80.04" y1="-16.04" y2="48" fill="#fff" stroke="#000" stroke-miterlimit="10" stroke-width=".5"/><line x1="-.01" x2="64.03" y1="-.03" y2="64.01" fill="#fff" stroke="#000" stroke-miterlimit="10" stroke-width=".5"/><line x1="-32.03" x2="32.01" y1="31.99" y2="96.03" fill="#fff" stroke="#000" stroke-miterlimit="10" stroke-width=".5"/><polygon fill="#fff" points="-80.04 48 -16 112.04 48.04 48 -16 -16.04 -80.04 48"/><line x1="16.02" x2="-48.02" y1="15.98" y2="80.02" fill="#fff" stroke="#000" stroke-miterlimit="10" stroke-width=".5"/><line x1=".01" x2="-64.03" y1="-.03" y2="64.01" fill="#fff" stroke="#000" stroke-miterlimit="10" stroke-width=".5"/><line x1="32.03" x2="-32.01" y1="31.99" y2="96.03" fill="#fff" stroke="#000" stroke-miterlimit="10" stroke-width=".5"/><line x1="-48.02" x2="16.02" y1="15.98" y2="80.02" fill="#fff" stroke="#000" stroke-miterlimit="10" stroke-width=".5"/><line x1="-16" x2="48.04" y1="-16.04" y2="48" fill="#fff" stroke="#000" stroke-miterlimit="10" stroke-width=".5"/><line x1="-32.01" x2="32.03" y1="-.03" y2="64.01" fill="#fff" stroke="#000" stroke-miterlimit="10" stroke-width=".5"/><line x1="-64.03" x2=".01" y1="31.99" y2="96.03" fill="#fff" stroke="#000" stroke-miterlimit="10" stroke-width=".5"/><polygon fill="#fff" points="-112.04 48 -48 112.04 16.04 48 -48 -16.04 -112.04 48"/><line x1=".03" x2="-64.01" y1="31.99" y2="96.03" fill="#fff" stroke="#000" stroke-miterlimit="10" stroke-width=".5"/><line x1="-48" x2="16.04" y1="-16.04" y2="48" fill="#fff" stroke="#000" stroke-miterlimit="10" stroke-width=".5"/><line x1="-64.01" x2=".03" y1="-.03" y2="64.01" fill="#fff" stroke="#000" stroke-miterlimit="10" stroke-width=".5"/><polygon fill="#fff" points="31.96 32 96 96.04 160.04 32 96 -32.04 31.96 32"/><line x1="96" x2="31.96" y1="-32.04" y2="32" fill="#fff" stroke="#000" stroke-miterlimit="10" stroke-width=".5"/><line x1="31.96" x2="96" y1="32" y2="96.04" fill="#fff" stroke="#000" stroke-miterlimit="10" stroke-width=".5"/><polygon fill="#fff" points="-.04 32 64 96.04 128.04 32 64 -32.04 -.04 32"/><line x1="96.02" x2="31.98" y1="-.02" y2="64.02" fill="#fff" stroke="#000" stroke-miterlimit="10" stroke-width=".5"/><line x1="64" x2="-.04" y1="-32.04" y2="32" fill="#fff" stroke="#000" stroke-miterlimit="10" stroke-width=".5"/><line x1="80.01" x2="15.97" y1="-16.03" y2="48.01" fill="#fff" stroke="#000" stroke-miterlimit="10" stroke-width=".5"/><line x1="31.98" x2="96.02" y1="-.02" y2="64.02" fill="#fff" stroke="#000" stroke-miterlimit="10" stroke-width=".5"/><line x1="15.97" x2="80.01" y1="15.99" y2="80.03" fill="#fff" stroke="#000" stroke-miterlimit="10" stroke-width=".5"/><line x1="-.04" x2="64" y1="32" y2="96.04" fill="#fff" stroke="#000" stroke-miterlimit="10" stroke-width=".5"/><polygon fill="#fff" points="-32.04 32 32 96.04 96.04 32 32 -32.04 -32.04 32"/><line x1="64.02" x2="-.02" y1="-.02" y2="64.02" fill="#fff" stroke="#000" stroke-miterlimit="10" stroke-width=".5"/><line x1="32" x2="-32.04" y1="-32.04" y2="32" fill="#fff" stroke="#000" stroke-miterlimit="10" stroke-width=".5"/><line x1="48.01" x2="-16.03" y1="-16.03" y2="48.01" fill="#fff" stroke="#000" stroke-miterlimit="10" stroke-width=".5"/><line x1="80.03" x2="15.99" y1="15.99" y2="80.03" fill="#fff" stroke="#000" stroke-miterlimit="10" stroke-width=".5"/><line x1="96.04" x2="32" y1="32" y2="96.04" fill="#fff" stroke="#000" stroke-miterlimit="10" stroke-width=".5"/><line x1="-.02" x2="64.02" y1="-.02" y2="64.02" fill="#fff" stroke="#000" stroke-miterlimit="10" stroke-width=".5"/><line x1="32" x2="96.04" y1="-32.04" y2="32" fill="#fff" stroke="#000" stroke-miterlimit="10" stroke-width=".5"/><line x1="15.99" x2="80.03" y1="-16.03" y2="48.01" fill="#fff" stroke="#000" stroke-miterlimit="10" stroke-width=".5"/><line x1="-16.03" x2="48.01" y1="15.99" y2="80.03" fill="#fff" stroke="#000" stroke-miterlimit="10" stroke-width=".5"/><line x1="-32.04" x2="32" y1="32" y2="96.04" fill="#fff" stroke="#000" stroke-miterlimit="10" stroke-width=".5"/><polygon fill="#fff" points="-64.04 32 0 96.04 64.04 32 0 -32.04 -64.04 32"/><line x1="32.02" x2="-32.02" y1="-.02" y2="64.02" fill="#fff" stroke="#000" stroke-miterlimit="10" stroke-width=".5"/><line x2="-64.04" y1="-32.04" y2="32" fill="#fff" stroke="#000" stroke-miterlimit="10" stroke-width=".5"/><line x1="16.01" x2="-48.03" y1="-16.03" y2="48.01" fill="#fff" stroke="#000" stroke-miterlimit="10" stroke-width=".5"/><line x1="48.03" x2="-16.01" y1="15.99" y2="80.03" fill="#fff" stroke="#000" stroke-miterlimit="10" stroke-width=".5"/><line x1="64.04" y1="32" y2="96.04" fill="#fff" stroke="#000" stroke-miterlimit="10" stroke-width=".5"/><line x1="-32.02" x2="32.02" y1="-.02" y2="64.02" fill="#fff" stroke="#000" stroke-miterlimit="10" stroke-width=".5"/><line x2="64.04" y1="-32.04" y2="32" fill="#fff" stroke="#000" stroke-miterlimit="10" stroke-width=".5"/><line x1="-16.01" x2="48.03" y1="-16.03" y2="48.01" fill="#fff" stroke="#000" stroke-miterlimit="10" stroke-width=".5"/><line x1="-48.03" x2="16.01" y1="15.99" y2="80.03" fill="#fff" stroke="#000" stroke-miterlimit="10" stroke-width=".5"/><line x1="-64.04" y1="32" y2="96.04" fill="#fff" stroke="#000" stroke-miterlimit="10" stroke-width=".5"/><polygon fill="#fff" points="-96.04 32 -32 96.04 32.04 32 -32 -32.04 -96.04 32"/><line x1=".02" x2="-64.02" y1="-.02" y2="64.02" fill="#fff" stroke="#000" stroke-miterlimit="10" stroke-width=".5"/><line x1="16.03" x2="-48.01" y1="15.99" y2="80.03" fill="#fff" stroke="#000" stroke-miterlimit="10" stroke-width=".5"/><line x1="32.04" x2="-32" y1="32" y2="96.04" fill="#fff" stroke="#000" stroke-miterlimit="10" stroke-width=".5"/><line x1="-64.02" x2=".02" y1="-.02" y2="64.02" fill="#fff" stroke="#000" stroke-miterlimit="10" stroke-width=".5"/><line x1="-32" x2="32.04" y1="-32.04" y2="32" fill="#fff" stroke="#000" stroke-miterlimit="10" stroke-width=".5"/><line x1="-48.01" x2="16.03" y1="-16.03" y2="48.01" fill="#fff" stroke="#000" stroke-miterlimit="10" stroke-width=".5"/><polygon fill="#fff" points="-128.04 32 -64 96.04 .04 32 -64 -32.04 -128.04 32"/><line x1=".04" x2="-64" y1="32" y2="96.04" fill="#fff" stroke="#000" stroke-miterlimit="10" stroke-width=".5"/><line x1="-64" x2=".04" y1="-32.04" y2="32" fill="#fff" stroke="#000" stroke-miterlimit="10" stroke-width=".5"/><polygon fill="#fff" points="15.96 16 80 80.04 144.04 16 80 -48.04 15.96 16"/><line x1="80" x2="15.96" y1="-48.04" y2="16" fill="#fff" stroke="#000" stroke-miterlimit="10" stroke-width=".5"/><line x1="96.01" x2="31.97" y1="-32.03" y2="32.01" fill="#fff" stroke="#000" stroke-miterlimit="10" stroke-width=".5"/><line x1="31.97" x2="96.01" y1="-.01" y2="64.03" fill="#fff" stroke="#000" stroke-miterlimit="10" stroke-width=".5"/><line x1="15.96" x2="80" y1="16" y2="80.04" fill="#fff" stroke="#000" stroke-miterlimit="10" stroke-width=".5"/><polygon fill="#fff" points="-16.04 16 48 80.04 112.04 16 48 -48.04 -16.04 16"/><line x1="80.02" x2="15.98" y1="-16.02" y2="48.02" fill="#fff" stroke="#000" stroke-miterlimit="10" stroke-width=".5"/><line x1="48" x2="-16.04" y1="-48.04" y2="16" fill="#fff" stroke="#000" stroke-miterlimit="10" stroke-width=".5"/><line x1="64.01" x2="-.03" y1="-32.03" y2="32.01" fill="#fff" stroke="#000" stroke-miterlimit="10" stroke-width=".5"/><line x1="96.03" x2="31.99" y1="-.01" y2="64.03" fill="#fff" stroke="#000" stroke-miterlimit="10" stroke-width=".5"/><line x1="15.98" x2="80.02" y1="-16.02" y2="48.02" fill="#fff" stroke="#000" stroke-miterlimit="10" stroke-width=".5"/><line x1="31.99" x2="96.03" y1="-32.03" y2="32.01" fill="#fff" stroke="#000" stroke-miterlimit="10" stroke-width=".5"/><line x1="-.03" x2="64.01" y1="-.01" y2="64.03" fill="#fff" stroke="#000" stroke-miterlimit="10" stroke-width=".5"/><line x1="-16.04" x2="48" y1="16" y2="80.04" fill="#fff" stroke="#000" stroke-miterlimit="10" stroke-width=".5"/><polygon fill="#fff" points="-48.04 16 16 80.04 80.04 16 16 -48.04 -48.04 16"/><line x1="48.02" x2="-16.02" y1="-16.02" y2="48.02" fill="#fff" stroke="#000" stroke-miterlimit="10" stroke-width=".5"/><line x1="16" x2="-48.04" y1="-48.04" y2="16" fill="#fff" stroke="#000" stroke-miterlimit="10" stroke-width=".5"/><line x1="32.01" x2="-32.03" y1="-32.03" y2="32.01" fill="#fff" stroke="#000" stroke-miterlimit="10" stroke-width=".5"/><line x1="64.03" x2="-.01" y1="-.01" y2="64.03" fill="#fff" stroke="#000" stroke-miterlimit="10" stroke-width=".5"/><line x1="80.04" x2="16" y1="16" y2="80.04" fill="#fff" stroke="#000" stroke-miterlimit="10" stroke-width=".5"/><line x1="-16.02" x2="48.02" y1="-16.02" y2="48.02" fill="#fff" stroke="#000" stroke-miterlimit="10" stroke-width=".5"/><line x1="16" x2="80.04" y1="-48.04" y2="16" fill="#fff" stroke="#000" stroke-miterlimit="10" stroke-width=".5"/><line x1="-.01" x2="64.03" y1="-32.03" y2="32.01" fill="#fff" stroke="#000" stroke-miterlimit="10" stroke-width=".5"/><line x1="-32.03" x2="32.01" y1="-.01" y2="64.03" fill="#fff" stroke="#000" stroke-miterlimit="10" stroke-width=".5"/><line x1="-48.04" x2="16" y1="16" y2="80.04" fill="#fff" stroke="#000" stroke-miterlimit="10" stroke-width=".5"/><polygon fill="#fff" points="-80.04 16 -16 80.04 48.04 16 -16 -48.04 -80.04 16"/><line x1="16.02" x2="-48.02" y1="-16.02" y2="48.02" fill="#fff" stroke="#000" stroke-miterlimit="10" stroke-width=".5"/><line x1=".01" x2="-64.03" y1="-32.03" y2="32.01" fill="#fff" stroke="#000" stroke-miterlimit="10" stroke-width=".5"/><line x1="32.03" x2="-32.01" y1="-.01" y2="64.03" fill="#fff" stroke="#000" stroke-miterlimit="10" stroke-width=".5"/><line x1="48.04" x2="-16" y1="16" y2="80.04" fill="#fff" stroke="#000" stroke-miterlimit="10" stroke-width=".5"/><line x1="-48.02" x2="16.02" y1="-16.02" y2="48.02" fill="#fff" stroke="#000" stroke-miterlimit="10" stroke-width=".5"/><line x1="-16" x2="48.04" y1="-48.04" y2="16" fill="#fff" stroke="#000" stroke-miterlimit="10" stroke-width=".5"/><line x1="-32.01" x2="32.03" y1="-32.03" y2="32.01" fill="#fff" stroke="#000" stroke-miterlimit="10" stroke-width=".5"/><line x1="-64.03" x2=".01" y1="-.01" y2="64.03" fill="#fff" stroke="#000" stroke-miterlimit="10" stroke-width=".5"/><polygon fill="#fff" points="-112.04 16 -48 80.04 16.04 16 -48 -48.04 -112.04 16"/><line x1=".03" x2="-64.01" y1="-.01" y2="64.03" fill="#fff" stroke="#000" stroke-miterlimit="10" stroke-width=".5"/><line x1="16.04" x2="-48" y1="16" y2="80.04" fill="#fff" stroke="#000" stroke-miterlimit="10" stroke-width=".5"/><line x1="-48" x2="16.04" y1="-48.04" y2="16" fill="#fff" stroke="#000" stroke-miterlimit="10" stroke-width=".5"/><line x1="-64.01" x2=".03" y1="-32.03" y2="32.01" fill="#fff" stroke="#000" stroke-miterlimit="10" stroke-width=".5"/><polygon fill="#fff" points="31.96 0 96 64.04 160.04 0 96 -64.04 31.96 0"/><line x1="96" x2="31.96" y1="-64.04" fill="#fff" stroke="#000" stroke-miterlimit="10" stroke-width=".5"/><line x1="31.96" x2="96" y2="64.04" fill="#fff" stroke="#000" stroke-miterlimit="10" stroke-width=".5"/><polygon fill="#fff" points="-.04 0 64 64.04 128.04 0 64 -64.04 -.04 0"/><line x1="96.02" x2="31.98" y1="-32.02" y2="32.02" fill="#fff" stroke="#000" stroke-miterlimit="10" stroke-width=".5"/><line x1="64" x2="-.04" y1="-64.04" fill="#fff" stroke="#000" stroke-miterlimit="10" stroke-width=".5"/><line x1="80.01" x2="15.97" y1="-48.03" y2="16.01" fill="#fff" stroke="#000" stroke-miterlimit="10" stroke-width=".5"/><line x1="31.98" x2="96.02" y1="-32.02" y2="32.02" fill="#fff" stroke="#000" stroke-miterlimit="10" stroke-width=".5"/><line x1="15.97" x2="80.01" y1="-16.01" y2="48.03" fill="#fff" stroke="#000" stroke-miterlimit="10" stroke-width=".5"/><line x1="-.04" x2="64" y2="64.04" fill="#fff" stroke="#000" stroke-miterlimit="10" stroke-width=".5"/><polygon fill="#fff" points="-32.04 0 32 64.04 96.04 0 32 -64.04 -32.04 0"/><line x1="64.02" x2="-.02" y1="-32.02" y2="32.02" fill="#fff" stroke="#000" stroke-miterlimit="10" stroke-width=".5"/><line x1="32" x2="-32.04" y1="-64.04" fill="#fff" stroke="#000" stroke-miterlimit="10" stroke-width=".5"/><line x1="48.01" x2="-16.03" y1="-48.03" y2="16.01" fill="#fff" stroke="#000" stroke-miterlimit="10" stroke-width=".5"/><line x1="80.03" x2="15.99" y1="-16.01" y2="48.03" fill="#fff" stroke="#000" stroke-miterlimit="10" stroke-width=".5"/><line x1="96.04" x2="32" y2="64.04" fill="#fff" stroke="#000" stroke-miterlimit="10" stroke-width=".5"/><line x1="-.02" x2="64.02" y1="-32.02" y2="32.02" fill="#fff" stroke="#000" stroke-miterlimit="10" stroke-width=".5"/><line x1="32" x2="96.04" y1="-64.04" fill="#fff" stroke="#000" stroke-miterlimit="10" stroke-width=".5"/><line x1="15.99" x2="80.03" y1="-48.03" y2="16.01" fill="#fff" stroke="#000" stroke-miterlimit="10" stroke-width=".5"/><line x1="-16.03" x2="48.01" y1="-16.01" y2="48.03" fill="#fff" stroke="#000" stroke-miterlimit="10" stroke-width=".5"/><line x1="-32.04" x2="32" y2="64.04" fill="#fff" stroke="#000" stroke-miterlimit="10" stroke-width=".5"/><polygon fill="#fff" points="-64.04 0 0 64.04 64.04 0 0 -64.04 -64.04 0"/><line x1="32.02" x2="-32.02" y1="-32.02" y2="32.02" fill="#fff" stroke="#000" stroke-miterlimit="10" stroke-width=".5"/><line x2="-64.04" y1="-64.04" fill="#fff" stroke="#000" stroke-miterlimit="10" stroke-width=".5"/><line x1="16.01" x2="-48.03" y1="-48.03" y2="16.01" fill="#fff" stroke="#000" stroke-miterlimit="10" stroke-width=".5"/><line x1="48.03" x2="-16.01" y1="-16.01" y2="48.03" fill="#fff" stroke="#000" stroke-miterlimit="10" stroke-width=".5"/><line x1="64.04" y2="64.04" fill="#fff" stroke="#000" stroke-miterlimit="10" stroke-width=".5"/><line x1="-32.02" x2="32.02" y1="-32.02" y2="32.02" fill="#fff" stroke="#000" stroke-miterlimit="10" stroke-width=".5"/><line x2="64.04" y1="-64.04" fill="#fff" stroke="#000" stroke-miterlimit="10" stroke-width=".5"/><line x1="-16.01" x2="48.03" y1="-48.03" y2="16.01" fill="#fff" stroke="#000" stroke-miterlimit="10" stroke-width=".5"/><line x1="-48.03" x2="16.01" y1="-16.01" y2="48.03" fill="#fff" stroke="#000" stroke-miterlimit="10" stroke-width=".5"/><line x1="-64.04" y2="64.04" fill="#fff" stroke="#000" stroke-miterlimit="10" stroke-width=".5"/><polygon fill="#fff" points="-96.04 0 -32 64.04 32.04 0 -32 -64.04 -96.04 0"/><line x1=".02" x2="-64.02" y1="-32.02" y2="32.02" fill="#fff" stroke="#000" stroke-miterlimit="10" stroke-width=".5"/><line x1="16.03" x2="-48.01" y1="-16.01" y2="48.03" fill="#fff" stroke="#000" stroke-miterlimit="10" stroke-width=".5"/><line x1="32.04" x2="-32" y2="64.04" fill="#fff" stroke="#000" stroke-miterlimit="10" stroke-width=".5"/><line x1="-64.02" x2=".02" y1="-32.02" y2="32.02" fill="#fff" stroke="#000" stroke-miterlimit="10" stroke-width=".5"/><line x1="-32" x2="32.04" y1="-64.04" fill="#fff" stroke="#000" stroke-miterlimit="10" stroke-width=".5"/><line x1="-48.01" x2="16.03" y1="-48.03" y2="16.01" fill="#fff" stroke="#000" stroke-miterlimit="10" stroke-width=".5"/><polygon fill="#fff" points="-128.04 0 -64 64.04 .04 0 -64 -64.04 -128.04 0"/><line x1=".04" x2="-64" y2="64.04" fill="#fff" stroke="#000" stroke-miterlimit="10" stroke-width=".5"/><line x1="-64" x2=".04" y1="-64.04" fill="#fff" stroke="#000" stroke-miterlimit="10" stroke-width=".5"/><polygon fill="#fff" points="15.96 -16 80 48.04 144.04 -16 80 -80.04 15.96 -16"/><line x1="96.01" x2="31.97" y1="-64.03" y2=".01" fill="#fff" stroke="#000" stroke-miterlimit="10" stroke-width=".5"/><line x1="31.97" x2="96.01" y1="-32.01" y2="32.03" fill="#fff" stroke="#000" stroke-miterlimit="10" stroke-width=".5"/><line x1="15.96" x2="80" y1="-16" y2="48.04" fill="#fff" stroke="#000" stroke-miterlimit="10" stroke-width=".5"/><polygon fill="#fff" points="-16.04 -16 48 48.04 112.04 -16 48 -80.04 -16.04 -16"/><line x1="80.02" x2="15.98" y1="-48.02" y2="16.02" fill="#fff" stroke="#000" stroke-miterlimit="10" stroke-width=".5"/><line x1="64.01" x2="-.03" y1="-64.03" y2=".01" fill="#fff" stroke="#000" stroke-miterlimit="10" stroke-width=".5"/><line x1="96.03" x2="31.99" y1="-32.01" y2="32.03" fill="#fff" stroke="#000" stroke-miterlimit="10" stroke-width=".5"/><line x1="15.98" x2="80.02" y1="-48.02" y2="16.02" fill="#fff" stroke="#000" stroke-miterlimit="10" stroke-width=".5"/><line x1="31.99" x2="96.03" y1="-64.03" y2=".01" fill="#fff" stroke="#000" stroke-miterlimit="10" stroke-width=".5"/><line x1="-.03" x2="64.01" y1="-32.01" y2="32.03" fill="#fff" stroke="#000" stroke-miterlimit="10" stroke-width=".5"/><line x1="-16.04" x2="48" y1="-16" y2="48.04" fill="#fff" stroke="#000" stroke-miterlimit="10" stroke-width=".5"/><polygon fill="#fff" points="-48.04 -16 16 48.04 80.04 -16 16 -80.04 -48.04 -16"/><line x1="48.02" x2="-16.02" y1="-48.02" y2="16.02" fill="#fff" stroke="#000" stroke-miterlimit="10" stroke-width=".5"/><line x1="32.01" x2="-32.03" y1="-64.03" y2=".01" fill="#fff" stroke="#000" stroke-miterlimit="10" stroke-width=".5"/><line x1="64.03" x2="-.01" y1="-32.01" y2="32.03" fill="#fff" stroke="#000" stroke-miterlimit="10" stroke-width=".5"/><line x1="80.04" x2="16" y1="-16" y2="48.04" fill="#fff" stroke="#000" stroke-miterlimit="10" stroke-width=".5"/><line x1="-16.02" x2="48.02" y1="-48.02" y2="16.02" fill="#fff" stroke="#000" stroke-miterlimit="10" stroke-width=".5"/><line x1="-.01" x2="64.03" y1="-64.03" y2=".01" fill="#fff" stroke="#000" stroke-miterlimit="10" stroke-width=".5"/><line x1="-32.03" x2="32.01" y1="-32.01" y2="32.03" fill="#fff" stroke="#000" stroke-miterlimit="10" stroke-width=".5"/><line x1="-48.04" x2="16" y1="-16" y2="48.04" fill="#fff" stroke="#000" stroke-miterlimit="10" stroke-width=".5"/><polygon fill="#fff" points="-80.04 -16 -16 48.04 48.04 -16 -16 -80.04 -80.04 -16"/><line x1="16.02" x2="-48.02" y1="-48.02" y2="16.02" fill="#fff" stroke="#000" stroke-miterlimit="10" stroke-width=".5"/><line x1=".01" x2="-64.03" y1="-64.03" y2=".01" fill="#fff" stroke="#000" stroke-miterlimit="10" stroke-width=".5"/><line x1="32.03" x2="-32.01" y1="-32.01" y2="32.03" fill="#fff" stroke="#000" stroke-miterlimit="10" stroke-width=".5"/><line x1="48.04" x2="-16" y1="-16" y2="48.04" fill="#fff" stroke="#000" stroke-miterlimit="10" stroke-width=".5"/><line x1="-48.02" x2="16.02" y1="-48.02" y2="16.02" fill="#fff" stroke="#000" stroke-miterlimit="10" stroke-width=".5"/><line x1="-32.01" x2="32.03" y1="-64.03" y2=".01" fill="#fff" stroke="#000" stroke-miterlimit="10" stroke-width=".5"/><line x1="-64.03" x2=".01" y1="-32.01" y2="32.03" fill="#fff" stroke="#000" stroke-miterlimit="10" stroke-width=".5"/><polygon fill="#fff" points="-112.04 -16 -48 48.04 16.04 -16 -48 -80.04 -112.04 -16"/><line x1=".03" x2="-64.01" y1="-32.01" y2="32.03" fill="#fff" stroke="#000" stroke-miterlimit="10" stroke-width=".5"/><line x1="16.04" x2="-48" y1="-16" y2="48.04" fill="#fff" stroke="#000" stroke-miterlimit="10" stroke-width=".5"/><line x1="-64.01" x2=".03" y1="-64.03" y2=".01" fill="#fff" stroke="#000" stroke-miterlimit="10" stroke-width=".5"/><polygon fill="#fff" points="31.96 -32 96 32.04 160.04 -32 96 -96.04 31.96 -32"/><line x1="31.96" x2="96" y1="-32" y2="32.04" fill="#fff" stroke="#000" stroke-miterlimit="10" stroke-width=".5"/><polygon fill="#fff" points="-.04 -32 64 32.04 128.04 -32 64 -96.04 -.04 -32"/><line x1="96.02" x2="31.98" y1="-64.02" y2=".02" fill="#fff" stroke="#000" stroke-miterlimit="10" stroke-width=".5"/><line x1="31.98" x2="96.02" y1="-64.02" y2=".02" fill="#fff" stroke="#000" stroke-miterlimit="10" stroke-width=".5"/><line x1="15.97" x2="80.01" y1="-48.01" y2="16.03" fill="#fff" stroke="#000" stroke-miterlimit="10" stroke-width=".5"/><line x1="-.04" x2="64" y1="-32" y2="32.04" fill="#fff" stroke="#000" stroke-miterlimit="10" stroke-width=".5"/><polygon fill="#fff" points="-32.04 -32 32 32.04 96.04 -32 32 -96.04 -32.04 -32"/><line x1="64.02" x2="-.02" y1="-64.02" y2=".02" fill="#fff" stroke="#000" stroke-miterlimit="10" stroke-width=".5"/><line x1="80.03" x2="15.99" y1="-48.01" y2="16.03" fill="#fff" stroke="#000" stroke-miterlimit="10" stroke-width=".5"/><line x1="96.04" x2="32" y1="-32" y2="32.04" fill="#fff" stroke="#000" stroke-miterlimit="10" stroke-width=".5"/><line x1="-.02" x2="64.02" y1="-64.02" y2=".02" fill="#fff" stroke="#000" stroke-miterlimit="10" stroke-width=".5"/><line x1="-16.03" x2="48.01" y1="-48.01" y2="16.03" fill="#fff" stroke="#000" stroke-miterlimit="10" stroke-width=".5"/><line x1="-32.04" x2="32" y1="-32" y2="32.04" fill="#fff" stroke="#000" stroke-miterlimit="10" stroke-width=".5"/><polygon fill="#fff" points="-64.04 -32 0 32.04 64.04 -32 0 -96.04 -64.04 -32"/><line x1="32.02" x2="-32.02" y1="-64.02" y2=".02" fill="#fff" stroke="#000" stroke-miterlimit="10" stroke-width=".5"/><line x1="48.03" x2="-16.01" y1="-48.01" y2="16.03" fill="#fff" stroke="#000" stroke-miterlimit="10" stroke-width=".5"/><line x1="64.04" y1="-32" y2="32.04" fill="#fff" stroke="#000" stroke-miterlimit="10" stroke-width=".5"/><line x1="-32.02" x2="32.02" y1="-64.02" y2=".02" fill="#fff" stroke="#000" stroke-miterlimit="10" stroke-width=".5"/><line x1="-48.03" x2="16.01" y1="-48.01" y2="16.03" fill="#fff" stroke="#000" stroke-miterlimit="10" stroke-width=".5"/><line x1="-64.04" y1="-32" y2="32.04" fill="#fff" stroke="#000" stroke-miterlimit="10" stroke-width=".5"/><polygon fill="#fff" points="-96.04 -32 -32 32.04 32.04 -32 -32 -96.04 -96.04 -32"/><line x1=".02" x2="-64.02" y1="-64.02" y2=".02" fill="#fff" stroke="#000" stroke-miterlimit="10" stroke-width=".5"/><line x1="16.03" x2="-48.01" y1="-48.01" y2="16.03" fill="#fff" stroke="#000" stroke-miterlimit="10" stroke-width=".5"/><line x1="32.04" x2="-32" y1="-32" y2="32.04" fill="#fff" stroke="#000" stroke-miterlimit="10" stroke-width=".5"/><line x1="-64.02" x2=".02" y1="-64.02" y2=".02" fill="#fff" stroke="#000" stroke-miterlimit="10" stroke-width=".5"/><polygon fill="#fff" points="-128.04 -32 -64 32.04 .04 -32 -64 -96.04 -128.04 -32"/><line x1=".04" x2="-64" y1="-32" y2="32.04" fill="#fff" stroke="#000" stroke-miterlimit="10" stroke-width=".5"/><polygon fill="#fff" points="15.96 -48 80 16.04 144.04 -48 80 -112.04 15.96 -48"/><line x1="31.97" x2="96.01" y1="-64.01" y2=".03" fill="#fff" stroke="#000" stroke-miterlimit="10" stroke-width=".5"/><line x1="15.96" x2="80" y1="-48" y2="16.04" fill="#fff" stroke="#000" stroke-miterlimit="10" stroke-width=".5"/><polygon fill="#fff" points="-16.04 -48 48 16.04 112.04 -48 48 -112.04 -16.04 -48"/><line x1="96.03" x2="31.99" y1="-64.01" y2=".03" fill="#fff" stroke="#000" stroke-miterlimit="10" stroke-width=".5"/><line x1="-.03" x2="64.01" y1="-64.01" y2=".03" fill="#fff" stroke="#000" stroke-miterlimit="10" stroke-width=".5"/><line x1="-16.04" x2="48" y1="-48" y2="16.04" fill="#fff" stroke="#000" stroke-miterlimit="10" stroke-width=".5"/><polygon fill="#fff" points="-48.04 -48 16 16.04 80.04 -48 16 -112.04 -48.04 -48"/><line x1="64.03" x2="-.01" y1="-64.01" y2=".03" fill="#fff" stroke="#000" stroke-miterlimit="10" stroke-width=".5"/><line x1="80.04" x2="16" y1="-48" y2="16.04" fill="#fff" stroke="#000" stroke-miterlimit="10" stroke-width=".5"/><line x1="-32.03" x2="32.01" y1="-64.01" y2=".03" fill="#fff" stroke="#000" stroke-miterlimit="10" stroke-width=".5"/><line x1="-48.04" x2="16" y1="-48" y2="16.04" fill="#fff" stroke="#000" stroke-miterlimit="10" stroke-width=".5"/><polygon fill="#fff" points="-80.04 -48 -16 16.04 48.04 -48 -16 -112.04 -80.04 -48"/><line x1="32.03" x2="-32.01" y1="-64.01" y2=".03" fill="#fff" stroke="#000" stroke-miterlimit="10" stroke-width=".5"/><line x1="48.04" x2="-16" y1="-48" y2="16.04" fill="#fff" stroke="#000" stroke-miterlimit="10" stroke-width=".5"/><line x1="-64.03" x2=".01" y1="-64.01" y2=".03" fill="#fff" stroke="#000" stroke-miterlimit="10" stroke-width=".5"/><polygon fill="#fff" points="-112.04 -48 -48 16.04 16.04 -48 -48 -112.04 -112.04 -48"/><line x1=".03" x2="-64.01" y1="-64.01" y2=".03" fill="#fff" stroke="#000" stroke-miterlimit="10" stroke-width=".5"/><line x1="16.04" x2="-48" y1="-48" y2="16.04" fill="#fff" stroke="#000" stroke-miterlimit="10" stroke-width=".5"/><polygon fill="#fff" points="31.96 -64 96 .04 160.04 -64 96 -128.04 31.96 -64"/><line x1="31.96" x2="96" y1="-64" y2=".04" fill="#fff" stroke="#000" stroke-miterlimit="10" stroke-width=".5"/><polygon fill="#fff" points="-.04 -64 64 .04 128.04 -64 64 -128.04 -.04 -64"/><line x1="-.04" x2="64" y1="-64" y2=".04" fill="#fff" stroke="#000" stroke-miterlimit="10" stroke-width=".5"/><polygon fill="#fff" points="-32.04 -64 32 .04 96.04 -64 32 -128.04 -32.04 -64"/><line x1="96.04" x2="32" y1="-64" y2=".04" fill="#fff" stroke="#000" stroke-miterlimit="10" stroke-width=".5"/><line x1="-32.04" x2="32" y1="-64" y2=".04" fill="#fff" stroke="#000" stroke-miterlimit="10" stroke-width=".5"/><polygon fill="#fff" points="-64.04 -64 0 .04 64.04 -64 0 -128.04 -64.04 -64"/><line x1="64.04" y1="-64" y2=".04" fill="#fff" stroke="#000" stroke-miterlimit="10" stroke-width=".5"/><line x1="-64.04" y1="-64" y2=".04" fill="#fff" stroke="#000" stroke-miterlimit="10" stroke-width=".5"/><polygon fill="#fff" points="-96.04 -64 -32 .04 32.04 -64 -32 -128.04 -96.04 -64"/><line x1="32.04" x2="-32" y1="-64" y2=".04" fill="#fff" stroke="#000" stroke-miterlimit="10" stroke-width=".5"/><polygon fill="#fff" points="-128.04 -64 -64 .04 .04 -64 -64 -128.04 -128.04 -64"/><line x1=".04" x2="-64" y1="-64" y2=".04" fill="#fff" stroke="#000" stroke-miterlimit="10" stroke-width=".5"/></pattern></defs><path fill="#fff" d="M1081.58,330.14c-22.09,14.66-31.31,13-41.35,25.95-6-13-15.77-11.29-33.32-25.95s-7.4-68.2-7.4-68.2l59.18-25,51.44,25S1103.65,315.47,1081.58,330.14Z"/><line x1="1011.97" x2="1004.15" y1="382.07" y2="408.82" fill="none" stroke="#000" stroke-miterlimit="10" stroke-width="1.5"/><line x1="1062.13" x2="1050" y1="382.07" y2="423.55" fill="none" stroke="#000" stroke-miterlimit="10" stroke-width="1.5"/><line x1="1374.75" x2="1278.68" y1="908.77" y2="495.08" fill="none" stroke="#000" stroke-miterlimit="10" stroke-width="1.5"/><path fill="#f8cda0" d="M1039,353.67c.44.75.86,1.55,1.27,2.42l.57-.71A24.67,24.67,0,0,0,1039,353.67Z"/><polygon points="1041.23 326.38 1017.92 298.73 1028.48 289.58 1044.07 308.07 1085.18 272.39 1092.9 281.55 1041.23 326.38"/><line x1="1181.28" x2="1165.29" y1="423.55" y2="494.93" fill="none" stroke="#000" stroke-miterlimit="10" stroke-width="1.5"/><line x1="1069.12" x2="1165.29" y1="909.01" y2="494.93" fill="none" stroke="#000" stroke-miterlimit="10" stroke-width="1.5"/><path d="M1039.26,412.91a3.68,3.68,0,0,1-1.83,5.77l-15.6,4.87h88.09V412.91Z"/><path fill="none" stroke="#000" stroke-miterlimit="10" stroke-width="1.5" d="M1264.41,423.55H1021.83L994.92,432a3.66,3.66,0,0,0-2.57,3.16l-1.36,14a3.69,3.69,0,0,1-6.73,1.7l-15.81-23.59-92.94-.78-40.75-.34A34.69,34.69,0,0,1,822,423.55H790.88l136,71.26,351.81-.24Z"/><path d="M1186.66,213.07H938.33a10.62,10.62,0,0,0-10.41,8.54L898.33,370.1a10.62,10.62,0,0,0,10.41,12.68h248.33a10.61,10.61,0,0,0,10.41-8.54l29.59-148.48A10.62,10.62,0,0,0,1186.66,213.07ZM1081.58,330.14c-22.09,14.66-31.31,13-41.35,25.95-6-13-15.77-11.29-33.32-25.95s-7.4-68.2-7.4-68.2l59.18-25,51.44,25S1103.65,315.47,1081.58,330.14Z"/><line x1="630.83" x2="535.47" y1="568.74" y2="912.74" fill="none" stroke="#000" stroke-miterlimit="10" stroke-width="1.5"/><path d="M732,553.91H594.53a14.83,14.83,0,0,0,14.83,14.83H780.25Z"/><path fill="none" stroke="#000" stroke-miterlimit="10" stroke-width="1.5" d="M683,434.07c3.81-8.74,7.66-18.19,7.66-18.19a152.91,152.91,0,0,0,8.48-50.28,115.34,115.34,0,0,0-59-16.2h0c-46.1,0-80.49,42.21-70.92,87l24.39,114.32a21.18,21.18,0,0,0,20.75,16.71H776.13L743.61,422.75Z"/><path fill="#fff" stroke="#000" stroke-miterlimit="10" stroke-width="1.5" d="M1200.13,895.44l-116.19-35.32-24.69-36.6a13.17,13.17,0,0,1-10.92,6.1l-40.43.85a67.54,67.54,0,0,1-10.76-.65l41.76,49.3-4.05,8.54a16.06,16.06,0,0,0,14.53,23l148.55-.26C1206.68,910.33,1208.51,898,1200.13,895.44Z"/><path fill="none" stroke="#000" stroke-miterlimit="10" stroke-width="1.5" d="M1200.13,895.44l-94.31-28.67a41.6,41.6,0,0,1-67.46,13.5l-3.51,7.39a16.06,16.06,0,0,0,14.53,23l148.55-.26C1206.68,910.33,1208.51,898,1200.13,895.44Z"/><path d="M1059.25,823.52a13.17,13.17,0,0,1-10.92,6.1l-40.43.85a69.47,69.47,0,0,1-11.65-.76h0l77.47,15.2Z"/><path d="M1059,808.6,987.33,706.45,964,787.29a23.36,23.36,0,0,1-13,14.92l1.1,1.43a68.47,68.47,0,0,0,55.8,26.83l40.43-.85A13.35,13.35,0,0,0,1059,808.6Z"/><polygon points="884.9 715.9 908.88 608.27 769.72 565.5 884.9 715.9"/><line x1="777.42" x2="993.36" y1="521.68" y2="803.64" fill="none" stroke="#fff" stroke-miterlimit="10" stroke-width="4.13"/><path fill="url(#a)" stroke="#000" stroke-miterlimit="10" stroke-width="1.5" d="M780,406.88l53.37-42.44-50.07-63c-.38-.5-.77-1-1.17-1.49l-.24-.3h0A48.2,48.2,0,0,0,751.28,283v-6.76H728v9.1a48.37,48.37,0,0,0-32.23,45.58h0a48.52,48.52,0,0,0,.89,9.25c4.89,25.25,2.34,51.39-6,75.71,0,0-3.85,9.45-7.66,18.19l94.37-17.62.64-.23a32.69,32.69,0,0,1-3.81-16.66Z"/><path fill="#fff" stroke="#000" stroke-miterlimit="10" stroke-width="1.5" d="M752.43,223.51h0c-3,11.08-16.92,13-27.62,13.73h0a6.81,6.81,0,0,0-6.63,11.17l9,10a6.52,6.52,0,0,0,1.08,1,17.58,17.58,0,0,0,14.18,7.2h0A17.63,17.63,0,0,0,760,249V238.16C756.18,237.23,750.64,230.19,752.43,223.51Z"/><path d="M744.6,266.46c2.08,2,5.13,4.58,6.68,4.13v-6.38h0A17.43,17.43,0,0,1,744.6,266.46Z"/><path fill="#fff" stroke="#000" stroke-miterlimit="10" stroke-width="1.5" d="M742.4,266.61h0a17.58,17.58,0,0,1-14.18-7.2c-.08-.05-.14-.13-.22-.19v17h23.28v-12A17.59,17.59,0,0,1,742.4,266.61Z"/><path d="M790.17,303c-4.72-22.58-20.75-42.67-20.17-65.73.3-13.29-3.73-24.72-15.5-30.9-8.45-4.44-18.75-3.79-27.88-1C714,209.18,701.79,218,698.52,230.8c-.72,2.79-1,5.69-1.81,8.45-1.68,5.65-5.53,10.34-9.29,14.87-3.31,4-6.67,8-10.89,11-4.42,3.15-9.6,5-14.49,7.42-7.32,3.56-14.24,8.46-18.65,15.32s-6,15.89-2.54,23.28c3.23,7,10.28,11.52,17.53,14.13a55.86,55.86,0,0,0,25.57,2.9,83.28,83.28,0,0,0,12.14-2.56A48.37,48.37,0,0,1,728,285.34V259.22a6.24,6.24,0,0,1-.86-.77l-9-10a6.81,6.81,0,0,1,6.63-11.17h0c10.7-.71,24.63-2.65,27.62-13.73h0c-1.79,6.68,3.75,13.72,7.61,14.65V249a17.62,17.62,0,0,1-8.76,15.22V283a48.2,48.2,0,0,1,30.59,16.7h0l.24.3c.4.49.79,1,1.17,1.49l7.77,9.76A41.15,41.15,0,0,0,790.17,303Z"/><path fill="#fff" stroke="#000" stroke-miterlimit="10" stroke-width="1.5" d="M987,896.87,934.65,881h0l-2.57-19.49-3.4-25.78h0l-2.42-18.32h0l5.94-14.93a24.07,24.07,0,0,1-3.39-1.73l-40-24.5-4.09,29.25s-1.4,0-2.07.1h0c-.29,0-.56.1-.84.14s-.75.12-1.12.21-.58.17-.88.26-.65.19-1,.32-.56.24-.84.37-.6.26-.89.41-.53.31-.79.47-.55.34-.81.52-.49.36-.72.55-.5.4-.74.61-.44.41-.65.62-.45.46-.66.7-.38.45-.57.68-.39.51-.57.78-.33.49-.48.73-.34.57-.49.86-.27.51-.39.77-.27.61-.39.92-.2.53-.29.8-.2.65-.28,1-.14.54-.2.82-.11.69-.16,1-.08.55-.1.83,0,.73,0,1.09,0,.54,0,.82.07.77.12,1.15.05.52.09.77c.08.43.19.86.31,1.29.05.22.09.43.16.65a13.7,13.7,0,0,0,.73,1.92l17.87,39.16,14.78,32.39a21.11,21.11,0,0,0,19.24,12.35l16.6,0,46.18-.08C993.4,911.39,995.18,899.35,987,896.87Z"/><line x1="884.71" x2="822.59" y1="805.45" y2="581.75" fill="none" stroke="#000" stroke-miterlimit="10" stroke-width="1.5"/><path fill="none" stroke="#000" stroke-miterlimit="10" stroke-width="1.5" d="M987,896.87,934.65,881l-6-45.27a32.93,32.93,0,0,1-46-30.13,15.67,15.67,0,0,0-12.45,22.07l17.87,39.16,14.78,32.39a21.13,21.13,0,0,0,19.24,12.35l16.6,0,46.18-.08C993.4,911.39,995.18,899.35,987,896.87Z"/><path d="M888.8,776.2l43.39,26.26-5.93,14.9S919.47,799.63,888.8,776.2Z"/><line x1="690.77" x2="785.68" y1="912.74" y2="570.4" fill="none" stroke="#000" stroke-miterlimit="10" stroke-width="1.5"/><line x1="760.12" x2="664.75" y1="912.74" y2="568.74" fill="none" stroke="#000" stroke-miterlimit="10" stroke-width="1.5"/><line x1="575.55" x2="720.03" y1="766.87" y2="766.87" fill="none" stroke="#000" stroke-miterlimit="10" stroke-width="1.5"/><line x1="730.85" x2="873.55" y1="766.87" y2="766.87" fill="none" stroke="#000" stroke-miterlimit="10" stroke-width="1.5"/><path d="M774.17 399.56c-6.45-7.17-12.54-14.61-18.55-22.13s-11.85-15.15-17.37-23.05c6.45 7.16 12.54 14.61 18.55 22.12S768.65 391.66 774.17 399.56zM980.7 522.33L778.88 416.58c-.32-.18-.66-.34-1-.52a.8.8 0 00.08.16l-.64.23-91.8 17.14a73.31 73.31 0 0039.55 118.2l183.79 56.48-32 143.89a21.1 21.1 0 009.58 22.58l42.4 26A23.57 23.57 0 00964 787.29l52.37-181.42A71.81 71.81 0 00980.7 522.33z"/><path fill="none" stroke="#fff" stroke-miterlimit="10" stroke-width="4.13" d="M685.54,433.59c-4.26,5.54-15.06,23.22-6.6,46.85s36.48,49.29,68.85,56.9l183.79,56.48L895,757.82"/><line x1="877.91" x2="958.51" y1="747.32" y2="796.93" fill="none" stroke="#fff" stroke-miterlimit="10" stroke-width="4.13"/><line x1="958.51" x2="1047.63" y1="810.88" y2="792.41" fill="none" stroke="#fff" stroke-miterlimit="10" stroke-width="4.13"/><path fill="#fff" stroke="#000" stroke-miterlimit="10" stroke-width="1.5" d="M1036.79,411l-63.71-5.25H973L840.49,385.63l-12.41-17-37.31,29.66,22.13,19a34.44,34.44,0,0,0,22.19,8.32l40.71.35,92.86.78,15.8,23.56a3.68,3.68,0,0,0,6.72-1.69l1.36-14a3.69,3.69,0,0,1,2.56-3.16l42.48-13.25A3.68,3.68,0,0,0,1036.79,411Z"/><path d="M828.11,368.63l-37.34,29.68,1,.81c18.12-14.84,42.63-21.55,42.77-21.71Z"/><path fill="#fff" d="M769.72,565.5c11.67,3.33,23.31,6.75,34.95,10.17l34.89,10.38,34.82,10.59,17.41,5.3,17.38,5.39.87.27-.2.88-6.07,26.89c-2,9-4.1,17.92-6.18,26.87l-6.26,26.85c-2.14,8.94-4.23,17.89-6.42,26.82,1.8-9,3.7-18,5.56-27l5.73-27c1.92-9,3.82-18,5.81-26.95l5.92-26.92.67,1.15-17.41-5.3-17.38-5.4-34.76-10.8-34.7-11C792.8,573,781.24,569.3,769.72,565.5Z"/></svg>